<svg xmlns="http://www.w3.org/2000/svg" xmlns:xlink="http://www.w3.org/1999/xlink" width="186" zoomAndPan="magnify" viewBox="0 0 139.5 312.749995" height="417" preserveAspectRatio="xMidYMid meet" version="1.0"><defs><g/><clipPath id="ffd079fa96"><path d="M 0.683594 174.039062 L 138 174.039062 L 138 311.410156 L 0.683594 311.410156 Z M 0.683594 174.039062 " clip-rule="nonzero"/></clipPath><clipPath id="da914d5e03"><path d="M 0 180.828125 L 0 304.484375 C 0 308.609375 3.347656 311.957031 7.472656 311.957031 L 131.125 311.957031 C 135.253906 311.957031 138.597656 308.609375 138.597656 304.484375 L 138.597656 180.828125 C 138.597656 176.703125 135.253906 173.355469 131.125 173.355469 L 7.472656 173.355469 C 3.347656 173.355469 0 176.703125 0 180.828125 Z M 0 180.828125 " clip-rule="nonzero"/></clipPath><clipPath id="1e49bcb862"><path d="M 8.292969 174.175781 L 130.304688 174.175781 C 134.433594 174.175781 137.78125 177.523438 137.78125 181.648438 L 137.78125 303.664062 C 137.78125 307.789062 134.433594 311.136719 130.304688 311.136719 L 8.292969 311.136719 C 4.164062 311.136719 0.820312 307.789062 0.820312 303.664062 L 0.820312 181.648438 C 0.820312 177.523438 4.164062 174.175781 8.292969 174.175781 Z M 8.292969 174.175781 " clip-rule="nonzero"/></clipPath><clipPath id="ed078bdf09"><path d="M 0 173.355469 L 138.734375 173.355469 L 138.734375 312 L 0 312 Z M 0 173.355469 " clip-rule="nonzero"/></clipPath><clipPath id="c45c3c87d6"><path d="M 0 180.828125 L 0 304.484375 C 0 308.609375 3.347656 311.957031 7.472656 311.957031 L 131.125 311.957031 C 135.253906 311.957031 138.597656 308.609375 138.597656 304.484375 L 138.597656 180.828125 C 138.597656 176.703125 135.253906 173.355469 131.125 173.355469 L 7.472656 173.355469 C 3.347656 173.355469 0 176.703125 0 180.828125 Z M 0 180.828125 " clip-rule="nonzero"/></clipPath><clipPath id="40b14df568"><path d="M 0 180.828125 L 0 304.480469 C 0 308.609375 3.347656 311.953125 7.472656 311.953125 L 131.125 311.953125 C 135.25 311.953125 138.597656 308.609375 138.597656 304.480469 L 138.597656 180.828125 C 138.597656 176.703125 135.25 173.355469 131.125 173.355469 L 7.472656 173.355469 C 3.347656 173.355469 0 176.703125 0 180.828125 Z M 0 180.828125 " clip-rule="nonzero"/></clipPath><clipPath id="dfb94dcf22"><path d="M 0.683594 1.117188 L 138 1.117188 L 138 138.488281 L 0.683594 138.488281 Z M 0.683594 1.117188 " clip-rule="nonzero"/></clipPath><clipPath id="d9d189978c"><path d="M 0 7.90625 L 0 131.558594 C 0 135.6875 3.347656 139.035156 7.472656 139.035156 L 131.125 139.035156 C 135.253906 139.035156 138.597656 135.6875 138.597656 131.558594 L 138.597656 7.90625 C 138.597656 3.78125 135.253906 0.433594 131.125 0.433594 L 7.472656 0.433594 C 3.347656 0.433594 0 3.78125 0 7.90625 Z M 0 7.90625 " clip-rule="nonzero"/></clipPath><clipPath id="266c9724f2"><path d="M 8.292969 1.253906 L 130.304688 1.253906 C 134.433594 1.253906 137.78125 4.601562 137.78125 8.726562 L 137.78125 130.738281 C 137.78125 134.867188 134.433594 138.214844 130.304688 138.214844 L 8.292969 138.214844 C 4.164062 138.214844 0.820312 134.867188 0.820312 130.738281 L 0.820312 8.726562 C 0.820312 4.601562 4.164062 1.253906 8.292969 1.253906 Z M 8.292969 1.253906 " clip-rule="nonzero"/></clipPath><clipPath id="cb29333eed"><path d="M 0 0.433594 L 138.734375 0.433594 L 138.734375 139.167969 L 0 139.167969 Z M 0 0.433594 " clip-rule="nonzero"/></clipPath><clipPath id="e92825d51b"><path d="M 0 7.90625 L 0 131.558594 C 0 135.6875 3.347656 139.035156 7.472656 139.035156 L 131.125 139.035156 C 135.253906 139.035156 138.597656 135.6875 138.597656 131.558594 L 138.597656 7.90625 C 138.597656 3.78125 135.253906 0.433594 131.125 0.433594 L 7.472656 0.433594 C 3.347656 0.433594 0 3.78125 0 7.90625 Z M 0 7.90625 " clip-rule="nonzero"/></clipPath><clipPath id="d13209ad12"><path d="M 0 7.90625 L 0 131.558594 C 0 135.683594 3.347656 139.03125 7.472656 139.03125 L 131.125 139.03125 C 135.25 139.03125 138.597656 135.683594 138.597656 131.558594 L 138.597656 7.90625 C 138.597656 3.78125 135.25 0.433594 131.125 0.433594 L 7.472656 0.433594 C 3.347656 0.433594 0 3.78125 0 7.90625 Z M 0 7.90625 " clip-rule="nonzero"/></clipPath><clipPath id="3181802cda"><path d="M 63 29.894531 L 71 29.894531 L 71 35 L 63 35 Z M 63 29.894531 " clip-rule="nonzero"/></clipPath><clipPath id="cea369f128"><path d="M 106.394531 50.097656 L 131.539062 50.097656 L 131.539062 55.984375 L 106.394531 55.984375 Z M 106.394531 50.097656 " clip-rule="nonzero"/></clipPath><clipPath id="ce72593365"><path d="M 7.171875 71 L 23 71 L 23 98 L 7.171875 98 Z M 7.171875 71 " clip-rule="nonzero"/></clipPath><clipPath id="9bcc80b2b2"><path d="M 44 106 L 50 106 L 50 109.855469 L 44 109.855469 Z M 44 106 " clip-rule="nonzero"/></clipPath><clipPath id="fb8702c53b"><path d="M 43.878906 107.570312 L 49.359375 107.570312 L 49.359375 109.800781 L 43.878906 109.800781 Z M 43.878906 107.570312 " clip-rule="nonzero"/></clipPath><clipPath id="367f30518f"><path d="M 43.878906 108.75 L 49.359375 108.75 L 49.359375 109.800781 L 43.878906 109.800781 Z M 43.878906 108.75 " clip-rule="nonzero"/></clipPath><clipPath id="6db12d94e9"><path d="M 30 181.40625 L 105 181.40625 L 105 238 L 30 238 Z M 30 181.40625 " clip-rule="nonzero"/></clipPath><clipPath id="c8623aed17"><path d="M 21 202 L 113.839844 202 L 113.839844 274.351562 L 21 274.351562 Z M 21 202 " clip-rule="nonzero"/></clipPath></defs><g clip-path="url(#ffd079fa96)"><g clip-path="url(#da914d5e03)"><g clip-path="url(#1e49bcb862)"><path fill="#d9d9d9" d="M 136.753906 175.195312 L 136.753906 310.109375 L 1.839844 310.109375 L 1.839844 175.195312 L 136.753906 175.195312 M 138.59375 173.355469 L 0 173.355469 L 0 311.949219 L 138.59375 311.949219 Z M 138.59375 173.355469 " fill-opacity="1" fill-rule="nonzero"/></g></g></g><g clip-path="url(#ed078bdf09)"><g clip-path="url(#c45c3c87d6)"><g clip-path="url(#40b14df568)"><path stroke-linecap="butt" transform="matrix(0.68343, 0, 0, 0.68343, 0.000000000000000908, 173.356215)" fill="none" stroke-linejoin="miter" d="M -0.000000000000001329 10.932962 L -0.000000000000001329 191.862121 C -0.000000000000001329 197.903572 4.898319 202.796176 10.934054 202.796176 L 191.863214 202.796176 C 197.898949 202.796176 202.797268 197.903572 202.797268 191.862121 L 202.797268 10.932962 C 202.797268 4.897227 197.898949 -0.00109234 191.863214 -0.00109234 L 10.934054 -0.00109234 C 4.898319 -0.00109234 -0.000000000000001329 4.897227 -0.000000000000001329 10.932962 Z M -0.000000000000001329 10.932962 " stroke="#d9d9d9" stroke-width="8.747896" stroke-opacity="1" stroke-miterlimit="4"/></g></g></g><g clip-path="url(#dfb94dcf22)"><g clip-path="url(#d9d189978c)"><g clip-path="url(#266c9724f2)"><path fill="#d9d9d9" d="M 136.753906 2.273438 L 136.753906 137.1875 L 1.839844 137.1875 L 1.839844 2.273438 L 136.753906 2.273438 M 138.59375 0.433594 L 0 0.433594 L 0 139.027344 L 138.59375 139.027344 Z M 138.59375 0.433594 " fill-opacity="1" fill-rule="nonzero"/></g></g></g><g clip-path="url(#cb29333eed)"><g clip-path="url(#e92825d51b)"><g clip-path="url(#d13209ad12)"><path stroke-linecap="butt" transform="matrix(0.68343, 0, 0, 0.68343, -0.000000000000037941, 0.433926)" fill="none" stroke-linejoin="miter" d="M 0.000000000000055515 10.933568 L 0.000000000000055515 191.862728 C 0.000000000000055515 197.898463 4.898319 202.796782 10.934054 202.796782 L 191.863214 202.796782 C 197.898949 202.796782 202.797268 197.898463 202.797268 191.862728 L 202.797268 10.933568 C 202.797268 4.897833 197.898949 -0.000486256 191.863214 -0.000486256 L 10.934054 -0.000486256 C 4.898319 -0.000486256 0.000000000000055515 4.897833 0.000000000000055515 10.933568 Z M 0.000000000000055515 10.933568 " stroke="#d9d9d9" stroke-width="8.747896" stroke-opacity="1" stroke-miterlimit="4"/></g></g></g><path fill="#eff1f4" d="M 94.328125 75.464844 C 92.675781 73.148438 90.085938 71.546875 87.117188 71.21875 C 86.714844 71.105469 86.296875 71.046875 85.871094 71.046875 C 85.28125 71.046875 84.710938 71.140625 84.179688 71.3125 C 83.851562 71.371094 83.527344 71.445312 83.207031 71.53125 C 82.34375 69.414062 80.15625 67.0625 76.480469 67.125 C 74.039062 67.167969 71.570312 68.699219 70.035156 70.441406 L 69.585938 58.078125 L 64.558594 58.078125 L 64.476562 69.972656 C 64.359375 69.964844 62.667969 67.308594 59.796875 67.484375 C 57.570312 67.617188 55.746094 69.515625 55.070312 70.800781 C 53.75 69.300781 51.277344 68.375 48.285156 68.375 C 43.734375 68.375 39.878906 71.339844 38.53125 75.445312 C 38.476562 75.445312 38.421875 75.441406 38.367188 75.441406 C 32.476562 75.441406 27.703125 80.230469 27.703125 86.132812 C 27.703125 92.039062 32.476562 96.824219 38.367188 96.824219 C 43.28125 96.824219 89.820312 96.824219 93.675781 96.824219 C 99.566406 96.824219 104.339844 92.039062 104.339844 86.132812 C 104.339844 80.449219 99.914062 75.800781 94.328125 75.464844 " fill-opacity="1" fill-rule="nonzero"/><path fill="#fbb03b" d="M 69.703125 60.492188 C 69.703125 63.046875 67.105469 67.210938 67.105469 67.210938 C 67.105469 67.210938 64.511719 62.632812 64.511719 60.492188 C 64.511719 58.859375 65.671875 58.03125 67.105469 58.03125 C 68.539062 58.03125 69.703125 58.832031 69.703125 60.492188 " fill-opacity="1" fill-rule="nonzero"/><path fill="#f7931e" d="M 68.894531 59.648438 C 68.894531 61.328125 67.144531 64.066406 67.144531 64.066406 C 67.144531 64.066406 65.398438 61.054688 65.398438 59.648438 C 65.398438 58.527344 66.179688 58.03125 67.144531 58.03125 C 68.113281 58.03125 68.894531 58.527344 68.894531 59.648438 " fill-opacity="1" fill-rule="nonzero"/><path fill="#eff1f4" d="M 63.707031 58.378906 L 70.765625 58.378906 C 70.882812 58.113281 70.996094 57.84375 71.113281 57.566406 C 72.601562 54.011719 74.191406 49.167969 74.183594 44.707031 C 74.175781 40.390625 72.644531 36.910156 71.007812 34.417969 C 70.09375 32.785156 67.128906 30.15625 67.128906 30.15625 C 67.128906 30.15625 64.359375 32.890625 63.261719 34.429688 C 61.597656 36.960938 60.023438 40.449219 60.03125 44.601562 C 60.035156 48.457031 61.839844 53.765625 63.410156 57.652344 C 63.511719 57.898438 63.609375 58.140625 63.707031 58.378906 " fill-opacity="1" fill-rule="nonzero"/><path fill="#76a0ff" d="M 68.785156 42.296875 C 68.785156 43.253906 68.011719 44.03125 67.054688 44.03125 C 66.097656 44.03125 65.324219 43.253906 65.324219 42.296875 C 65.324219 41.339844 66.097656 40.5625 67.054688 40.5625 C 68.011719 40.5625 68.785156 41.339844 68.785156 42.296875 " fill-opacity="1" fill-rule="nonzero"/><path fill="#f2734c" d="M 67.105469 40.222656 C 65.976562 40.222656 65.0625 41.140625 65.0625 42.269531 C 65.0625 43.402344 65.976562 44.320312 67.105469 44.320312 C 68.234375 44.320312 69.152344 43.402344 69.152344 42.269531 C 69.152344 41.140625 68.234375 40.222656 67.105469 40.222656 M 67.105469 40.773438 C 67.929688 40.773438 68.601562 41.445312 68.601562 42.269531 C 68.601562 43.097656 67.929688 43.769531 67.105469 43.769531 C 66.285156 43.769531 65.613281 43.097656 65.613281 42.269531 C 65.613281 41.445312 66.285156 40.773438 67.105469 40.773438 " fill-opacity="1" fill-rule="nonzero"/><path fill="#f2734c" d="M 60.738281 49.667969 C 60.738281 49.667969 57.621094 50.371094 56.75 52.414062 C 56.0625 54.03125 60.363281 58.519531 60.363281 58.519531 C 60.363281 58.519531 60.265625 54.710938 62.074219 54.082031 L 60.738281 49.667969 " fill-opacity="1" fill-rule="nonzero"/><path fill="#f2734c" d="M 73.710938 49.546875 C 73.710938 49.546875 76.894531 50.371094 77.765625 52.414062 C 78.453125 54.03125 74.152344 58.519531 74.152344 58.519531 C 74.152344 58.519531 74.25 54.710938 72.441406 54.082031 L 73.710938 49.546875 " fill-opacity="1" fill-rule="nonzero"/><path fill="#f2734c" d="M 66.253906 49.457031 L 67.957031 49.457031 L 67.957031 53.222656 L 67.105469 56.578125 L 66.253906 53.3125 L 66.253906 49.457031 " fill-opacity="1" fill-rule="nonzero"/><g clip-path="url(#3181802cda)"><path fill="#f2734c" d="M 63.472656 33.945312 C 64.496094 34.476562 65.757812 34.789062 67.125 34.789062 C 68.476562 34.789062 69.722656 34.484375 70.742188 33.964844 C 69.65625 32.207031 67.070312 29.894531 67.070312 29.894531 C 67.070312 29.894531 64.695312 32.238281 63.472656 33.945312 " fill-opacity="1" fill-rule="nonzero"/></g><path fill="#f2734c" d="M 70.09375 59.613281 L 64.328125 59.613281 L 63.855469 58.402344 L 70.566406 58.402344 L 70.09375 59.613281 " fill-opacity="1" fill-rule="nonzero"/><path fill="#eff1f4" d="M 27.257812 50.140625 C 25.550781 50.140625 24.125 51.339844 23.773438 52.945312 C 23.382812 52.789062 22.960938 52.703125 22.515625 52.703125 C 19.777344 52.703125 18.851562 55.585938 17.402344 55.585938 L 38.003906 55.585938 C 36.53125 55.585938 34.609375 52.488281 32.746094 52.488281 C 32.019531 52.488281 31.34375 52.691406 30.765625 53.042969 C 30.449219 51.390625 29 50.140625 27.257812 50.140625 " fill-opacity="1" fill-rule="nonzero"/><path fill="#eff1f4" d="M 44.675781 35.539062 C 43.5 35.539062 42.519531 36.363281 42.273438 37.46875 C 42.007812 37.363281 41.714844 37.304688 41.410156 37.304688 C 39.523438 37.304688 38.886719 39.289062 37.886719 39.289062 L 52.070312 39.289062 C 51.058594 39.289062 49.734375 37.15625 48.453125 37.15625 C 47.953125 37.15625 47.488281 37.296875 47.089844 37.539062 C 46.871094 36.398438 45.875 35.539062 44.675781 35.539062 " fill-opacity="1" fill-rule="nonzero"/><path fill="#eff1f4" d="M 89.046875 40.535156 C 87.960938 40.535156 87.050781 41.300781 86.824219 42.324219 C 86.578125 42.222656 86.308594 42.167969 86.023438 42.167969 C 84.28125 42.167969 83.691406 44.007812 82.765625 44.007812 L 95.890625 44.007812 C 94.953125 44.007812 93.730469 42.035156 92.542969 42.035156 C 92.082031 42.035156 91.648438 42.160156 91.28125 42.386719 C 91.078125 41.332031 90.15625 40.535156 89.046875 40.535156 " fill-opacity="1" fill-rule="nonzero"/><g clip-path="url(#cea369f128)"><path fill="#eff1f4" d="M 131.539062 55.898438 C 129.734375 55.898438 128.414062 53.675781 127.1875 53.675781 C 126.78125 53.675781 126.40625 53.785156 126.078125 53.976562 C 125.609375 53.019531 124.628906 52.359375 123.496094 52.359375 C 123.148438 52.359375 122.816406 52.421875 122.507812 52.535156 C 121.894531 51.125 120.492188 50.136719 118.859375 50.136719 C 117.277344 50.136719 115.910156 51.0625 115.269531 52.398438 C 114.820312 52.164062 114.308594 52.03125 113.769531 52.03125 C 112.515625 52.03125 111.429688 52.742188 110.890625 53.785156 C 110.671875 53.714844 110.4375 53.675781 110.199219 53.675781 C 108.308594 53.675781 108.0625 55.898438 106.421875 55.898438 " fill-opacity="1" fill-rule="nonzero"/></g><path fill="#e8ecf8" d="M 67.71875 100.8125 C 38.738281 100.8125 15.25 99.25 15.25 97.328125 C 15.25 96.316406 21.730469 95.40625 32.082031 94.769531 C 33.84375 96.0625 36.015625 96.824219 38.367188 96.824219 C 43.28125 96.824219 89.820312 96.824219 93.675781 96.824219 C 96.132812 96.824219 98.394531 95.992188 100.199219 94.589844 C 112.371094 95.230469 120.183594 96.21875 120.183594 97.328125 C 120.183594 99.25 96.695312 100.8125 67.71875 100.8125 " fill-opacity="1" fill-rule="nonzero"/><path fill="#dce2f0" d="M 93.675781 96.824219 C 89.820312 96.824219 43.28125 96.824219 38.367188 96.824219 C 36.015625 96.824219 33.84375 96.0625 32.082031 94.769531 C 41.4375 94.195312 53.960938 93.84375 67.71875 93.84375 C 79.984375 93.84375 91.265625 94.125 100.199219 94.589844 C 98.394531 95.992188 96.132812 96.824219 93.675781 96.824219 " fill-opacity="1" fill-rule="nonzero"/><g clip-path="url(#ce72593365)"><path fill="#76a0ff" d="M 8.113281 91.828125 C 9.476562 92.695312 11.519531 93.449219 13.664062 93.449219 C 16.351562 93.449219 17.851562 92.054688 17.851562 89.980469 C 17.851562 88.058594 16.695312 86.925781 13.765625 85.757812 C 9.984375 84.246094 7.566406 82.023438 7.566406 78.363281 C 7.566406 74.214844 10.699219 71.050781 15.671875 71.050781 C 18.15625 71.050781 19.996094 71.652344 21.1875 72.332031 L 20.167969 76.0625 C 19.351562 75.574219 17.75 74.855469 15.605469 74.855469 C 12.949219 74.855469 11.789062 76.441406 11.789062 77.914062 C 11.789062 79.875 13.117188 80.777344 16.183594 82.097656 C 20.167969 83.757812 22.109375 85.984375 22.109375 89.640625 C 22.109375 93.714844 19.316406 97.257812 13.390625 97.257812 C 10.972656 97.257812 8.453125 96.503906 7.195312 95.675781 L 8.113281 91.828125 " fill-opacity="1" fill-rule="nonzero"/></g><path fill="#76a0ff" d="M 28.578125 75.347656 L 22.039062 75.347656 L 22.039062 71.464844 L 39.371094 71.464844 L 39.371094 75.347656 L 32.765625 75.347656 L 32.765625 96.882812 L 28.578125 96.882812 L 28.578125 75.347656 " fill-opacity="1" fill-rule="nonzero"/><path fill="#76a0ff" d="M 49.042969 86.171875 L 47.238281 79.910156 C 46.792969 78.363281 46.417969 76.628906 46.078125 75.160156 L 46.011719 75.160156 C 45.671875 76.628906 45.332031 78.402344 44.921875 79.910156 L 43.152344 86.171875 Z M 42.46875 89.679688 L 40.496094 96.882812 L 36.171875 96.882812 L 43.523438 71.464844 L 48.871094 71.464844 L 56.328125 96.882812 L 51.832031 96.882812 L 49.757812 89.679688 L 42.46875 89.679688 " fill-opacity="1" fill-rule="nonzero"/><path fill="#76a0ff" d="M 61.980469 83.039062 L 64.464844 83.039062 C 67.292969 83.039062 69.0625 81.382812 69.0625 78.855469 C 69.0625 76.0625 67.292969 74.78125 64.566406 74.78125 C 63.238281 74.78125 62.390625 74.894531 61.980469 75.007812 Z M 57.824219 71.804688 C 59.390625 71.5 61.742188 71.273438 64.160156 71.273438 C 67.460938 71.273438 69.710938 71.878906 71.242188 73.3125 C 72.5 74.480469 73.21875 76.253906 73.21875 78.402344 C 73.21875 81.683594 71.207031 83.910156 69.0625 84.777344 L 69.0625 84.890625 C 70.695312 85.566406 71.683594 87.339844 72.261719 89.789062 C 72.980469 92.957031 73.589844 95.898438 74.066406 96.882812 L 69.742188 96.882812 C 69.402344 96.125 68.859375 94.050781 68.210938 90.882812 C 67.5625 87.566406 66.476562 86.511719 64.089844 86.433594 L 61.980469 86.433594 L 61.980469 96.882812 L 57.824219 96.882812 L 57.824219 71.804688 " fill-opacity="1" fill-rule="nonzero"/><path fill="#76a0ff" d="M 80.058594 75.347656 L 73.523438 75.347656 L 73.523438 71.464844 L 90.855469 71.464844 L 90.855469 75.347656 L 84.25 75.347656 L 84.25 96.882812 L 80.058594 96.882812 L 80.058594 75.347656 " fill-opacity="1" fill-rule="nonzero"/><path fill="#76a0ff" d="M 95.996094 71.464844 L 95.996094 86.285156 C 95.996094 91.261719 97.867188 93.5625 100.695312 93.5625 C 103.726562 93.5625 105.53125 91.261719 105.53125 86.285156 L 105.53125 71.464844 L 109.71875 71.464844 L 109.71875 85.984375 C 109.71875 93.828125 106.074219 97.296875 100.558594 97.296875 C 95.246094 97.296875 91.808594 94.015625 91.808594 86.019531 L 91.808594 71.464844 L 95.996094 71.464844 " fill-opacity="1" fill-rule="nonzero"/><path fill="#76a0ff" d="M 116.96875 83.644531 C 117.480469 83.796875 118.164062 83.832031 119.011719 83.832031 C 122.144531 83.832031 124.050781 82.136719 124.050781 79.15625 C 124.050781 76.328125 122.28125 74.820312 119.386719 74.820312 C 118.230469 74.820312 117.414062 74.933594 116.96875 75.046875 Z M 112.816406 71.804688 C 114.3125 71.5 116.390625 71.273438 119.21875 71.273438 C 122.28125 71.273438 124.527344 71.992188 125.992188 73.347656 C 127.355469 74.59375 128.242188 76.59375 128.242188 78.96875 C 128.242188 81.382812 127.558594 83.378906 126.265625 84.738281 C 124.597656 86.585938 121.976562 87.453125 119.011719 87.453125 C 118.230469 87.453125 117.515625 87.414062 116.96875 87.300781 L 116.96875 96.882812 L 112.816406 96.882812 L 112.816406 71.804688 " fill-opacity="1" fill-rule="nonzero"/><path fill="#e89c82" d="M 11.066406 64.207031 C 10.996094 64.820312 10.648438 66.964844 10.90625 67.621094 C 11.078125 68.0625 11.386719 68.457031 11.710938 68.796875 C 11.933594 68.703125 12.574219 67.15625 12.792969 67.0625 C 12.710938 66.191406 12.628906 65.324219 12.550781 64.453125 C 12.09375 64.371094 11.519531 64.289062 11.066406 64.207031 " fill-opacity="1" fill-rule="nonzero"/><path fill="#e89c82" d="M 19.054688 64.226562 C 19.132812 64.871094 19.421875 67.082031 19.097656 67.710938 C 18.882812 68.128906 18.324219 68.703125 17.964844 69.007812 C 17.753906 68.890625 17.3125 67.015625 17.101562 66.902344 C 17.273438 66.042969 17.441406 65.1875 17.613281 64.332031 C 18.074219 64.296875 18.59375 64.261719 19.054688 64.226562 " fill-opacity="1" fill-rule="nonzero"/><path fill="#99beff" d="M 17.351562 68.917969 L 12.585938 68.917969 C 12.585938 68.917969 11.980469 64.910156 12.847656 64 C 13.777344 63.015625 16.613281 63.0625 17.28125 63.894531 C 18.074219 64.871094 17.351562 68.917969 17.351562 68.917969 " fill-opacity="1" fill-rule="nonzero"/><path fill="#002560" d="M 10.53125 69.21875 C 11.484375 69.410156 12.929688 69.628906 14.695312 69.605469 C 17.441406 69.566406 18.886719 68.964844 19.046875 69.445312 C 19.222656 69.988281 17.671875 71.652344 15.859375 72.015625 C 15.085938 72.171875 14.089844 71.816406 12.09375 71.101562 C 11.515625 70.894531 10.808594 70.613281 10.585938 69.894531 C 10.507812 69.636719 10.511719 69.390625 10.53125 69.21875 " fill-opacity="1" fill-rule="nonzero"/><path fill="#99beff" d="M 11.03125 64.367188 C 11.007812 64.15625 11.144531 63.304688 11.484375 62.824219 C 11.886719 62.53125 12.320312 62.347656 13.234375 62.09375 C 14.199219 61.828125 15.152344 61.855469 15.550781 61.890625 C 17.023438 62.019531 18.058594 62.472656 18.574219 62.839844 C 18.894531 63.25 19.0625 63.890625 19.097656 64.296875 C 19.15625 64.914062 11.070312 64.75 11.03125 64.367188 " fill-opacity="1" fill-rule="nonzero"/><path fill="#ffffff" d="M 11.332031 69.445312 C 11.34375 69.605469 11.484375 69.738281 11.644531 69.738281 L 18.414062 69.71875 C 18.574219 69.71875 18.710938 69.585938 18.722656 69.425781 L 18.917969 65.554688 C 18.921875 65.390625 18.792969 65.257812 18.628906 65.257812 L 11.347656 65.277344 C 11.1875 65.277344 11.058594 65.410156 11.066406 65.574219 L 11.332031 69.445312 " fill-opacity="1" fill-rule="nonzero"/><path fill="#063e8e" d="M 16.796875 62.164062 L 13.144531 62.164062 L 13.144531 59.332031 L 16.796875 59.332031 L 16.796875 62.164062 " fill-opacity="1" fill-rule="nonzero"/><path fill="#e89c82" d="M 15.980469 61.046875 C 15.914062 61.527344 15.742188 62.082031 15.917969 62.585938 C 15.496094 62.621094 14.902344 62.515625 14.480469 62.546875 C 14.496094 62.082031 14.46875 61.511719 14.253906 60.957031 C 14.851562 61.007812 15.382812 60.996094 15.980469 61.046875 " fill-opacity="1" fill-rule="nonzero"/><path fill="#f4ae92" d="M 16.65625 59.71875 C 16.65625 60.808594 15.964844 61.691406 15.113281 61.691406 C 14.257812 61.691406 13.566406 60.808594 13.566406 59.71875 C 13.566406 58.628906 14.257812 57.746094 15.113281 57.746094 C 15.964844 57.746094 16.65625 58.628906 16.65625 59.71875 " fill-opacity="1" fill-rule="nonzero"/><path fill="#e89c82" d="M 15.550781 61.890625 C 15.183594 61.859375 14.351562 61.832031 13.476562 62.035156 C 13.484375 62.589844 14.199219 63.039062 15.078125 63.039062 C 15.933594 63.039062 16.632812 62.617188 16.683594 62.085938 C 16.335938 61.996094 15.957031 61.925781 15.550781 61.890625 " fill-opacity="1" fill-rule="nonzero"/><path fill="#0944ad" d="M 15.527344 57.855469 C 15.488281 58.09375 15.394531 58.324219 15.160156 58.558594 C 14.589844 59.144531 14.09375 59.242188 13.765625 59.660156 C 13.476562 60.019531 13.492188 61.089844 14.222656 62.660156 C 13.566406 63.035156 12.96875 62.640625 12.820312 62.535156 C 12.234375 62.121094 12.394531 60.078125 12.820312 58.835938 C 13.074219 58.097656 13.371094 57.238281 14.21875 56.855469 C 14.304688 56.816406 15.109375 56.46875 15.867188 56.832031 C 16.621094 57.191406 16.910156 58.027344 17.226562 59.207031 C 17.421875 59.925781 17.625 61.757812 17.398438 62.21875 C 17.140625 62.75 16.527344 62.789062 16.09375 62.675781 C 16.769531 62.019531 16.714844 60.015625 16.632812 59.425781 C 16.578125 59.023438 16.363281 58.226562 15.527344 57.855469 " fill-opacity="1" fill-rule="nonzero"/><path fill="#b1bee8" d="M 15.480469 67.332031 C 15.480469 67.597656 15.265625 67.8125 15 67.8125 C 14.734375 67.8125 14.519531 67.597656 14.519531 67.332031 C 14.519531 67.066406 14.734375 66.851562 15 66.851562 C 15.265625 66.851562 15.480469 67.066406 15.480469 67.332031 " fill-opacity="1" fill-rule="nonzero"/><path fill="#e89c82" d="M 15.140625 73.175781 C 15.140625 73.230469 15.171875 73.371094 15.3125 73.542969 C 15.511719 73.78125 15.851562 73.808594 15.933594 73.871094 C 16.203125 74.074219 16.765625 74.453125 18.109375 74.945312 C 18.257812 75 19.003906 75.226562 19.238281 74.667969 C 19.46875 74.128906 18.914062 73.714844 18.277344 73.445312 C 17.664062 73.1875 17.347656 73.25 16.949219 72.996094 C 16.769531 72.882812 16.644531 72.679688 16.53125 72.664062 C 16.429688 72.652344 16.3125 72.667969 16.242188 72.78125 " fill-opacity="1" fill-rule="nonzero"/><path fill="#03336d" d="M 13.277344 70.523438 C 12.792969 70.09375 12.070312 69.429688 11.054688 69.019531 C 10.3125 68.71875 9.75 68.632812 9.191406 68.667969 C 8.828125 68.820312 8.457031 69.257812 8.445312 69.730469 C 8.421875 70.617188 9.738281 71.894531 10.972656 72.402344 C 12.761719 73.140625 15.597656 74 15.933594 73.921875 C 16.363281 73.816406 16.652344 72.941406 16.652344 72.941406 C 15.140625 71.972656 14.027344 71.183594 13.277344 70.523438 " fill-opacity="1" fill-rule="nonzero"/><path fill="#e89c82" d="M 14.425781 73.472656 C 14.421875 73.527344 14.378906 73.660156 14.222656 73.820312 C 14.007812 74.042969 13.664062 74.039062 13.578125 74.09375 C 13.292969 74.273438 12.699219 74.605469 11.320312 74.984375 C 11.167969 75.027344 10.40625 75.1875 10.214844 74.609375 C 10.035156 74.054688 10.621094 73.6875 11.277344 73.476562 C 11.910156 73.269531 12.21875 73.359375 12.640625 73.136719 C 12.828125 73.039062 12.96875 72.851562 13.082031 72.84375 C 13.1875 72.839844 13.300781 72.863281 13.363281 72.988281 " fill-opacity="1" fill-rule="nonzero"/><path fill="#03336d" d="M 20.785156 68.667969 C 20.226562 68.632812 19.664062 68.71875 18.925781 69.019531 C 17.90625 69.429688 17.1875 70.09375 16.699219 70.523438 C 15.949219 71.183594 14.996094 72.054688 13.382812 73 C 13.382812 73 13.5 74.09375 13.988281 74.015625 C 14.746094 73.886719 17.214844 73.140625 19.003906 72.402344 C 20.238281 71.894531 21.554688 70.617188 21.53125 69.730469 C 21.519531 69.257812 21.148438 68.820312 20.785156 68.667969 " fill-opacity="1" fill-rule="nonzero"/><path fill="#002560" d="M 11.320312 74.984375 C 11.441406 74.953125 11.558594 74.917969 11.671875 74.882812 C 11.382812 74.699219 11.191406 74.378906 11.191406 74.015625 C 11.191406 73.804688 11.253906 73.613281 11.363281 73.449219 C 11.335938 73.457031 11.308594 73.464844 11.277344 73.476562 C 10.621094 73.6875 10.035156 74.054688 10.214844 74.609375 C 10.40625 75.1875 11.167969 75.027344 11.320312 74.984375 " fill-opacity="1" fill-rule="nonzero"/><path fill="#002560" d="M 18.683594 73.65625 C 18.570312 73.597656 18.464844 73.539062 18.359375 73.488281 C 18.441406 73.820312 18.359375 74.183594 18.109375 74.449219 C 17.96875 74.601562 17.789062 74.699219 17.601562 74.742188 C 17.625 74.753906 17.652344 74.769531 17.679688 74.78125 C 18.300781 75.078125 18.980469 75.21875 19.230469 74.6875 C 19.488281 74.140625 18.824219 73.730469 18.683594 73.65625 " fill-opacity="1" fill-rule="nonzero"/><path fill="#99beff" d="M 34.589844 107.546875 L 36.011719 100.695312 L 35.257812 100.539062 L 33.835938 107.46875 C 33.835938 107.46875 33.90625 107.625 34.1875 107.664062 C 34.453125 107.699219 34.589844 107.546875 34.589844 107.546875 " fill-opacity="1" fill-rule="nonzero"/><path fill="#99beff" d="M 43.808594 107.515625 C 43.808594 107.515625 44.015625 107.609375 44.171875 107.589844 C 44.363281 107.566406 44.472656 107.457031 44.472656 107.457031 L 43.488281 100.785156 L 42.726562 100.914062 L 43.808594 107.515625 " fill-opacity="1" fill-rule="nonzero"/><g clip-path="url(#9bcc80b2b2)"><path fill="#f4ae92" d="M 44.335938 106.945312 C 44.394531 107.355469 44.234375 107.695312 44.128906 108.296875 C 44.109375 108.410156 43.949219 108.929688 44.269531 109.238281 C 44.859375 109.800781 45.292969 108.9375 47.695312 109.613281 C 48.550781 109.855469 49.214844 109.53125 49.214844 109.515625 C 49.339844 108.855469 48.703125 108.671875 48.128906 108.546875 C 47.394531 108.386719 46.949219 108.285156 46.464844 107.953125 C 46.046875 107.667969 46 107.148438 45.875 106.871094 C 45.410156 106.953125 44.800781 106.863281 44.335938 106.945312 " fill-opacity="1" fill-rule="nonzero"/></g><g clip-path="url(#fb8702c53b)"><path fill="#02294f" d="M 46.246094 107.632812 C 46.070312 107.746094 45.863281 107.855469 45.429688 107.914062 C 44.804688 107.996094 44.410156 107.808594 44.214844 107.710938 C 44.097656 107.90625 43.824219 108.734375 43.925781 109.121094 C 43.996094 109.398438 44.535156 109.707031 46.097656 109.679688 C 47.152344 109.660156 47.925781 109.917969 49.21875 109.734375 C 49.363281 109.304688 49.15625 109.023438 49.007812 108.890625 C 48.539062 108.46875 47.902344 108.640625 47 108.175781 C 46.71875 108.03125 46.375 107.765625 46.246094 107.632812 " fill-opacity="1" fill-rule="nonzero"/></g><g clip-path="url(#367f30518f)"><path fill="#0944ad" d="M 46.65625 109.359375 C 47.425781 109.417969 48.589844 109.644531 49.265625 109.386719 C 49.277344 109.480469 49.25 109.644531 49.21875 109.734375 C 47.925781 109.917969 47.152344 109.660156 46.097656 109.679688 C 44.535156 109.707031 43.996094 109.398438 43.925781 109.121094 C 43.902344 109.03125 43.898438 108.910156 43.910156 108.78125 C 44.089844 109.03125 44.375 109.203125 44.820312 109.28125 C 45.285156 109.363281 45.964844 109.308594 46.65625 109.359375 " fill-opacity="1" fill-rule="nonzero"/></g><path fill="#99beff" d="M 33.242188 89.058594 C 31.390625 88.816406 30.507812 89.285156 30.222656 89.683594 C 29.484375 90.722656 31.296875 92.367188 32.617188 96.535156 C 33.625 99.726562 32.941406 100.242188 33.863281 100.886719 C 35.195312 101.816406 36.941406 100.820312 41.523438 101.0625 C 42.277344 101.101562 43.546875 101.175781 43.964844 101.222656 C 44.183594 100.882812 44.730469 98.710938 44.496094 98.367188 C 42.46875 95.367188 34.023438 89.4375 33.242188 89.058594 " fill-opacity="1" fill-rule="nonzero"/><path fill="#f4ae92" d="M 46.605469 105.003906 C 46.648438 105.367188 46.503906 105.667969 46.398438 106.199219 C 46.378906 106.300781 46.226562 106.761719 46.507812 107.039062 C 47.023438 107.550781 47.421875 106.789062 49.542969 107.429688 C 50.300781 107.65625 50.894531 107.378906 50.894531 107.363281 C 51.015625 106.78125 50.453125 106.609375 49.945312 106.488281 C 49.296875 106.335938 48.902344 106.238281 48.476562 105.933594 C 48.113281 105.675781 48.082031 105.210938 47.972656 104.964844 C 47.558594 105.03125 47.019531 104.9375 46.605469 105.003906 " fill-opacity="1" fill-rule="nonzero"/><path fill="#f4ae92" d="M 37.234375 83.714844 C 37.578125 83.941406 38.019531 83.386719 37.929688 84.085938 C 37.855469 84.640625 37.929688 85.683594 37.828125 86.257812 C 37.691406 87.046875 37.503906 87.40625 37.3125 87.558594 C 36.800781 87.957031 35.492188 87.613281 35.019531 86.691406 C 34.597656 85.875 35.101562 84.234375 35.160156 84.125 " fill-opacity="1" fill-rule="nonzero"/><path fill="#f4ae92" d="M 37.046875 87.390625 C 36.707031 87.496094 36.46875 87.792969 36.449219 88.125 C 36.425781 88.511719 36.714844 88.761719 36.746094 88.789062 C 36.503906 88.855469 35.980469 88.960938 35.351562 88.789062 C 34.828125 88.648438 34.46875 88.382812 34.285156 88.222656 C 34.429688 87.984375 34.605469 87.613281 34.617188 87.15625 C 34.648438 86.296875 34.09375 85.84375 34.285156 85.589844 C 34.503906 85.304688 35.445312 85.546875 36.082031 86.023438 C 36.683594 86.472656 36.941406 87.078125 37.046875 87.390625 " fill-opacity="1" fill-rule="nonzero"/><path fill="#e89c82" d="M 39.425781 92.136719 C 39.886719 92.402344 40.285156 93.503906 40.347656 93.535156 C 41.0625 93.886719 41.890625 94.535156 42.96875 95.234375 C 43.3125 95.460938 43.816406 95.078125 44.515625 95.261719 C 44.753906 95.324219 44.875 95.410156 44.996094 95.46875 C 45.003906 95.496094 45.167969 95.875 44.914062 96.136719 C 44.882812 96.164062 44.671875 96.382812 44.414062 96.308594 C 44.25 96.265625 44.277344 96.042969 44.253906 96.003906 C 44.015625 96.082031 43.644531 96.226562 43.367188 96.261719 C 41.648438 96.476562 40.253906 95.535156 39.699219 95.109375 C 39.609375 94.117188 39.519531 93.125 39.425781 92.136719 " fill-opacity="1" fill-rule="nonzero"/><path fill="#03336d" d="M 36.976562 84.109375 C 38.246094 84.679688 38.835938 83.648438 38.78125 83.65625 C 38.46875 83.707031 38.105469 82.886719 37.878906 82.609375 C 37.046875 81.578125 35.460938 81.679688 34.742188 82.027344 C 33.910156 82.425781 33.550781 83.066406 33.484375 83.769531 C 33.425781 84.421875 33.851562 85.636719 34.195312 85.75 C 34.386719 85.8125 35.503906 85.84375 35.503906 85.84375 C 35.503906 85.84375 35.375 83.386719 36.976562 84.109375 " fill-opacity="1" fill-rule="nonzero"/><path fill="#002560" d="M 46.867188 96.792969 C 47.269531 96.839844 47.816406 96.972656 48.15625 97.402344 C 48.660156 98.050781 48.542969 99.535156 48.453125 99.914062 C 48.1875 101.070312 48.183594 103.433594 48.183594 105.378906 C 47.695312 105.722656 46.878906 105.792969 46.371094 105.5625 C 46.203125 104.273438 45.917969 102.921875 45.863281 102.183594 C 45.710938 100.082031 46.347656 98.859375 45.160156 97.992188 C 44.5625 97.554688 44.191406 97.175781 44.273438 96.925781 C 44.398438 96.554688 45.679688 96.636719 46.867188 96.792969 " fill-opacity="1" fill-rule="nonzero"/><path fill="#ffffff" d="M 45.816406 97.492188 L 47.359375 96.785156 L 49.777344 92.632812 L 48.679688 92.558594 L 45.816406 97.492188 " fill-opacity="1" fill-rule="nonzero"/><path fill="#ffffff" d="M 45.8125 97.484375 L 40.5 97.160156 L 40.375 96.933594 L 42.84375 96.183594 L 46.410156 96.460938 L 45.8125 97.484375 " fill-opacity="1" fill-rule="nonzero"/><path fill="#f4ae92" d="M 35.128906 85.378906 C 35.046875 85.050781 34.71875 84.773438 34.484375 84.824219 C 34.238281 84.875 34.136719 85.171875 34.121094 85.355469 C 34.101562 85.582031 34.15625 85.941406 34.40625 86.070312 C 34.71875 86.230469 35.136719 85.898438 35.152344 85.886719 " fill-opacity="1" fill-rule="nonzero"/><path fill="#03336d" d="M 35.011719 97.210938 C 34.949219 97.5625 34.894531 98.648438 35.371094 99.324219 C 35.796875 99.921875 36.417969 99.941406 37.03125 99.984375 C 39.140625 100.136719 41.714844 99.726562 43.234375 100.226562 C 43.625 100.207031 44.101562 100.730469 43.964844 101.683594 C 43.621094 104.070312 44.097656 105.976562 44.207031 107.175781 C 45.070312 107.554688 46.164062 107.230469 46.164062 107.230469 C 46.164062 107.230469 46.273438 105.347656 46.488281 102.917969 C 46.71875 100.304688 46.796875 99.035156 46.1875 98.125 C 45.640625 97.304688 43.832031 97.261719 42.144531 97.058594 C 38.988281 96.679688 36.523438 96.839844 35.011719 97.210938 " fill-opacity="1" fill-rule="nonzero"/><path fill="#ffffff" d="M 34.089844 88.082031 C 34.328125 88.265625 34.652344 88.503906 35.285156 88.632812 C 36.070312 88.796875 36.40625 88.6875 36.703125 88.589844 C 36.921875 88.765625 37.371094 89 37.828125 89.285156 C 38.308594 89.582031 38.625 89.894531 39.164062 91.113281 C 40.238281 93.535156 40.277344 96.476562 40.238281 96.902344 C 39.363281 96.914062 38.421875 97.113281 37.414062 97.46875 C 35.5625 98.125 34.808594 97.949219 34.808594 97.949219 C 34.808594 97.949219 34.59375 95.652344 35.007812 94.625 C 35.273438 93.964844 35.21875 93.351562 35.515625 93.054688 C 35.234375 92.96875 34.828125 92.867188 34.238281 92.933594 C 33.5625 93.011719 33.234375 93.21875 32.976562 93.378906 C 32.664062 92.558594 32.511719 91.984375 32.367188 90.984375 C 32.28125 90.367188 32.414062 89.722656 32.867188 89.035156 C 33.21875 88.496094 33.804688 88.242188 34.089844 88.082031 " fill-opacity="1" fill-rule="nonzero"/><path fill="#f4ae92" d="M 35.511719 92.984375 C 35.753906 93.527344 35.640625 93.933594 35.671875 93.945312 C 37.035156 94.558594 38.464844 95.40625 39.839844 95.691406 C 40.496094 95.828125 40.925781 95.242188 41.523438 95.183594 C 42.699219 95.070312 42.917969 95.65625 42.992188 96.234375 C 42.15625 95.804688 42.019531 96.457031 41.746094 96.535156 C 41.058594 96.738281 40.511719 96.734375 40.339844 96.703125 C 39.582031 96.574219 38.425781 97.042969 34.363281 95.769531 C 33.707031 94.945312 33.632812 94.546875 33.140625 93.234375 C 34.039062 92.746094 34.660156 92.832031 35.511719 92.984375 " fill-opacity="1" fill-rule="nonzero"/><path fill="#99beff" d="M 33.210938 95.632812 C 34.1875 95.816406 35.097656 95.957031 36.140625 96.179688 C 36.898438 96.339844 38.21875 96.453125 39.054688 97.292969 C 40.242188 98.484375 40.148438 99.964844 40.148438 100.230469 C 39.886719 100.253906 39.753906 100.195312 39.488281 100.214844 C 39.519531 99.554688 39.320312 98.496094 38.539062 97.714844 C 38.035156 97.207031 37.351562 97.046875 36.011719 96.746094 C 34.9375 96.503906 34.039062 96.394531 33.421875 96.339844 C 33.351562 96.105469 33.28125 95.867188 33.210938 95.632812 " fill-opacity="1" fill-rule="nonzero"/><path fill="#99beff" d="M 36.558594 96.246094 C 37.398438 96.40625 39.84375 96.761719 39.859375 96.875 C 39.875 96.976562 39.789062 97.105469 39.730469 97.148438 C 39.40625 97.386719 38.808594 97.441406 38.296875 97.132812 " fill-opacity="1" fill-rule="nonzero"/><path fill="#02294f" d="M 48.257812 105.65625 C 48.101562 105.761719 47.921875 105.859375 47.539062 105.914062 C 46.980469 105.996094 46.632812 105.835938 46.453125 105.753906 C 46.355469 105.929688 46.125 106.667969 46.21875 107.007812 C 46.285156 107.253906 46.765625 107.523438 48.152344 107.476562 C 49.089844 107.445312 49.78125 107.664062 50.925781 107.484375 C 51.046875 107.097656 50.859375 106.851562 50.726562 106.734375 C 50.304688 106.367188 49.742188 106.53125 48.9375 106.128906 C 48.683594 106.003906 48.371094 105.773438 48.257812 105.65625 " fill-opacity="1" fill-rule="nonzero"/><path fill="#0944ad" d="M 48.644531 107.183594 C 49.332031 107.226562 50.367188 107.410156 50.960938 107.171875 C 50.976562 107.257812 50.953125 107.402344 50.925781 107.484375 C 49.78125 107.664062 49.089844 107.445312 48.152344 107.476562 C 46.765625 107.523438 46.285156 107.253906 46.21875 107.007812 C 46.195312 106.929688 46.191406 106.824219 46.199219 106.707031 C 46.363281 106.925781 46.617188 107.078125 47.015625 107.140625 C 47.429688 107.203125 48.03125 107.148438 48.644531 107.183594 " fill-opacity="1" fill-rule="nonzero"/><path fill="#99beff" d="M 38.503906 103.886719 C 38.503906 103.886719 38.386719 104.027344 38.191406 104.011719 C 37.929688 103.988281 37.886719 103.835938 37.886719 103.835938 L 38.132812 100.746094 L 38.75 100.796875 L 38.503906 103.886719 " fill-opacity="1" fill-rule="nonzero"/><path fill="#f4ae92" d="M 112.644531 65.378906 C 112.84375 65.609375 113.328125 65.945312 113.640625 66.378906 C 114.105469 67.015625 114.167969 67.226562 114.222656 67.53125 C 114.34375 68.167969 114.035156 68.621094 114.316406 68.871094 C 114.398438 68.941406 114.535156 69.003906 114.667969 68.976562 C 115.078125 68.890625 115.1875 68 115.359375 66.535156 C 115.507812 65.238281 115.449219 64.910156 115.25 64.796875 C 115.035156 64.671875 114.816406 64.894531 114.332031 64.828125 C 113.976562 64.777344 113.703125 64.605469 113.519531 64.457031 C 113.238281 64.730469 112.925781 65.109375 112.644531 65.378906 " fill-opacity="1" fill-rule="nonzero"/><path fill="#03336d" d="M 119.710938 61.722656 C 119.863281 61.613281 120.082031 61.421875 120.1875 61.125 C 120.359375 60.640625 120.085938 60.191406 120.265625 59.957031 C 120.316406 59.886719 120.753906 59.632812 121.691406 60.015625 C 122.5625 60.375 123.019531 60.273438 123.4375 60.601562 C 123.59375 60.722656 124.105469 61.125 124.082031 61.660156 C 124.074219 61.859375 123.941406 61.980469 123.84375 62.015625 C 123.644531 62.085938 123.464844 61.980469 123.101562 61.847656 C 122.804688 61.734375 122.550781 61.789062 122.148438 61.875 C 121.777344 61.957031 121.171875 62.140625 120.480469 62.582031 C 120.222656 62.296875 119.96875 62.011719 119.710938 61.722656 " fill-opacity="1" fill-rule="nonzero"/><path fill="#f4ae92" d="M 120.148438 61.21875 C 120.320312 61.285156 120.484375 61.386719 120.628906 61.515625 C 120.855469 61.71875 121.011719 61.96875 121.101562 62.238281 C 120.90625 62.332031 120.695312 62.445312 120.480469 62.582031 C 120.222656 62.296875 119.96875 62.011719 119.710938 61.722656 C 119.847656 61.625 120.035156 61.460938 120.148438 61.21875 " fill-opacity="1" fill-rule="nonzero"/><path fill="#061230" d="M 124.082031 61.660156 C 124.105469 61.125 123.59375 60.722656 123.4375 60.601562 C 123.019531 60.273438 122.5625 60.375 121.691406 60.015625 C 120.753906 59.632812 120.316406 59.886719 120.265625 59.957031 C 120.246094 59.976562 120.234375 60 120.226562 60.027344 C 120.214844 59.933594 120.207031 59.808594 120.21875 59.710938 C 120.234375 59.546875 120.511719 59.410156 120.925781 59.484375 C 121.539062 59.585938 121.6875 59.820312 122.175781 59.921875 C 122.554688 60.003906 122.976562 59.925781 123.558594 60.292969 C 123.816406 60.453125 124.410156 60.953125 124.296875 61.460938 C 124.261719 61.625 124.164062 61.855469 123.933594 61.945312 C 124.023438 61.867188 124.078125 61.71875 124.082031 61.660156 " fill-opacity="1" fill-rule="nonzero"/><path fill="#03336d" d="M 116.253906 45.324219 C 116.253906 45.644531 116.515625 45.902344 116.835938 45.902344 C 117.15625 45.902344 117.417969 45.644531 117.417969 45.324219 C 117.417969 45.003906 117.15625 44.742188 116.835938 44.742188 C 116.515625 44.742188 116.253906 45.003906 116.253906 45.324219 " fill-opacity="1" fill-rule="nonzero"/><path fill="#f4ae92" d="M 118.980469 43.089844 C 119.222656 42.628906 119.453125 42.15625 119.671875 41.601562 C 119.757812 41.378906 119.6875 41.195312 119.855469 40.945312 C 119.890625 40.890625 120.324219 40.507812 120.613281 40.507812 C 120.953125 40.507812 121.09375 40.632812 121.140625 40.691406 C 121.265625 40.949219 121.25 41.480469 121.175781 41.542969 C 120.980469 41.714844 120.507812 41.867188 120.476562 41.867188 C 120.25 42.355469 120.058594 42.84375 119.832031 43.332031 C 119.546875 43.25 119.261719 43.167969 118.980469 43.089844 " fill-opacity="1" fill-rule="nonzero"/><path fill="#f4ae92" d="M 112.148438 43.78125 C 112.070312 43.5 111.957031 42.605469 112.058594 42.039062 C 112.097656 41.832031 112.171875 41.648438 112.3125 41.519531 C 112.554688 41.296875 112.84375 41.363281 112.980469 41.117188 C 113.042969 41.003906 113.003906 40.945312 113.09375 40.828125 C 113.128906 40.78125 113.25 40.644531 113.4375 40.632812 C 113.605469 40.621094 113.773438 40.742188 113.785156 40.839844 C 113.800781 40.953125 113.707031 41.011719 113.609375 41.253906 C 113.550781 41.414062 113.574219 41.5 113.554688 41.601562 C 113.519531 41.777344 113.152344 42.003906 112.796875 42.222656 C 112.828125 42.660156 112.910156 43.285156 112.910156 43.285156 C 112.910156 43.285156 112.191406 43.777344 112.148438 43.78125 " fill-opacity="1" fill-rule="nonzero"/><path fill="#03336d" d="M 117.359375 56.574219 C 117.585938 56.984375 117.8125 57.484375 117.980469 58.074219 C 118.496094 59.902344 117.875 61.390625 117.867188 62.316406 C 117.953125 62.222656 119.488281 61.496094 119.773438 61.484375 C 119.925781 61.480469 120.167969 61.59375 120.386719 61.875 C 120.632812 62.1875 120.667969 62.539062 120.660156 62.636719 C 119.957031 63.214844 118.117188 64.875 117.257812 65.300781 C 116.875 65.488281 116.300781 65.496094 115.808594 65.242188 C 115.046875 64.851562 115.015625 63.15625 114.863281 60.414062 C 114.1875 60.917969 113.195312 61.382812 112.449219 61.714844 C 112.257812 61.800781 112.105469 61.917969 111.976562 62.0625 C 112.109375 62.226562 112.300781 62.484375 112.484375 62.820312 C 112.695312 63.210938 112.722656 63.386719 112.886719 63.652344 C 113.027344 63.882812 113.273438 64.191406 113.726562 64.46875 C 113.6875 64.625 113.597656 64.917969 113.347656 65.171875 C 113.347656 65.171875 113.085938 65.4375 112.691406 65.550781 C 112.203125 64.953125 109.066406 63.101562 109.046875 62.1875 C 109.023438 61.082031 110.34375 59.410156 112.96875 57.679688 C 113.347656 57.429688 113.296875 56.863281 113.371094 56.632812 C 114.675781 56.59375 116.050781 56.613281 117.359375 56.574219 " fill-opacity="1" fill-rule="nonzero"/><path fill="#99beff" d="M 116.335938 48.148438 C 116.34375 48.386719 116.167969 49.132812 116.175781 49.371094 C 116.339844 49.40625 116.410156 49.398438 116.648438 49.289062 C 117.066406 49.09375 117.226562 48.5625 117.429688 47.46875 C 117.617188 46.4375 117.660156 45.9375 117.726562 45.53125 C 117.84375 44.84375 118.375 43.871094 119.007812 42.605469 C 119.484375 42.527344 119.960938 42.773438 120.117188 42.972656 C 119.785156 44.101562 119.394531 45.035156 119.246094 45.714844 C 119.046875 46.609375 118.820312 47.644531 118.832031 49.011719 C 118.839844 49.945312 118.625 50.5 118.496094 50.835938 C 118.300781 51.351562 118.082031 51.765625 117.691406 52.679688 C 117.300781 53.601562 117.1875 54.910156 117.246094 55.328125 C 117.324219 55.890625 117.515625 56.558594 117.644531 56.867188 C 117.300781 57.035156 116.632812 57.207031 116.054688 57.285156 C 114.777344 57.457031 113.839844 57.300781 113.21875 57.035156 C 113.632812 54.363281 113.710938 53.320312 113.425781 52.769531 C 113.363281 52.648438 113.144531 52.269531 113.152344 51.757812 C 113.15625 51.195312 113.445312 50.910156 113.566406 50.535156 C 113.714844 50.0625 113.382812 49.503906 112.804688 47.539062 C 112.542969 46.636719 112.378906 45.820312 112.117188 44.496094 C 112.035156 44.089844 112.015625 43.742188 111.972656 43.511719 C 112.28125 43.269531 112.519531 43.226562 112.96875 43.113281 C 113.300781 43.988281 113.6875 44.949219 113.976562 46.019531 C 114.269531 47.121094 114.308594 47.644531 114.667969 48.828125 C 114.75 49.097656 114.691406 49.339844 114.691406 49.496094 C 114.867188 49.0625 114.851562 48.625 114.851562 48.625 C 114.851562 48.625 116.289062 48.132812 116.335938 48.148438 " fill-opacity="1" fill-rule="nonzero"/><path fill="#f4ae92" d="M 114.46875 49.863281 C 114.449219 49.574219 114.578125 49.507812 114.691406 49.496094 C 114.855469 49.085938 114.851562 48.675781 114.851562 48.628906 C 114.871094 48.617188 114.890625 48.609375 114.910156 48.601562 C 114.945312 48.589844 114.992188 48.574219 115.042969 48.558594 C 115.1875 48.515625 115.34375 48.492188 115.511719 48.492188 C 115.792969 48.492188 116.054688 48.5625 116.269531 48.675781 C 116.222656 48.949219 116.171875 49.238281 116.175781 49.371094 C 116.339844 49.40625 116.648438 49.289062 116.648438 49.289062 C 116.648438 49.289062 116.660156 49.550781 116.660156 49.636719 C 116.660156 50.179688 116.054688 50.433594 115.511719 50.453125 C 114.789062 50.472656 114.488281 50.164062 114.46875 49.863281 " fill-opacity="1" fill-rule="nonzero"/><path fill="#f4ae92" d="M 114.96875 46.054688 C 114.46875 45.980469 114.15625 46.34375 114.089844 47.011719 C 114.015625 47.753906 114.121094 48.339844 114.292969 48.652344 C 114.445312 48.921875 114.632812 49.140625 114.882812 49.242188 C 115.328125 49.425781 116.042969 49.199219 116.300781 48.78125 C 116.445312 48.554688 116.441406 48.25 116.460938 47.929688 C 116.5 47.394531 116.492188 46.996094 116.15625 46.660156 " fill-opacity="1" fill-rule="nonzero"/><path fill="#03336d" d="M 116.417969 47.753906 C 116.410156 47.496094 116.320312 46.96875 116.027344 46.691406 C 115.832031 46.507812 115.105469 46.3125 114.554688 46.433594 C 114.238281 46.503906 114.167969 46.691406 114.09375 46.929688 C 114.085938 46.796875 114.019531 46.050781 114.503906 45.542969 C 115 45.03125 116.007812 44.867188 116.628906 45.328125 C 117.109375 45.683594 117.148438 46.269531 117.046875 46.777344 C 116.929688 47.34375 116.535156 47.667969 116.417969 47.753906 " fill-opacity="1" fill-rule="nonzero"/><path fill="#03336d" d="M 116.429688 48.425781 C 116.644531 48.445312 117.03125 48.28125 117.25 47.847656 C 117.761719 46.835938 117.109375 45.640625 116.632812 45.347656 C 116.558594 45.300781 116.375 45.492188 116.269531 45.949219 C 116.394531 46.164062 116.570312 46.542969 116.621094 47.046875 C 116.6875 47.722656 116.425781 47.902344 116.429688 48.425781 " fill-opacity="1" fill-rule="nonzero"/><path fill="#f4ae92" d="M 116.34375 47.617188 C 116.421875 47.445312 116.582031 47.347656 116.714844 47.375 C 116.902344 47.410156 116.957031 47.664062 116.949219 47.816406 C 116.9375 48.003906 116.804688 48.242188 116.582031 48.265625 C 116.386719 48.285156 116.246094 48.132812 116.226562 48.113281 " fill-opacity="1" fill-rule="nonzero"/><path fill="#061230" d="M 114.667969 68.976562 C 115.078125 68.890625 115.226562 68.117188 115.398438 66.648438 C 115.550781 65.351562 115.449219 64.910156 115.25 64.796875 C 115.203125 64.769531 115.152344 64.757812 115.101562 64.757812 C 115.3125 64.675781 115.632812 64.730469 115.765625 64.820312 C 115.808594 64.847656 115.898438 66.066406 115.746094 66.171875 C 115.65625 66.234375 115.605469 66.730469 115.59375 67.097656 C 115.570312 67.9375 115.484375 68.125 115.417969 68.332031 C 115.273438 68.816406 115.074219 69.097656 114.738281 69.09375 C 114.636719 69.09375 114.464844 69.046875 114.453125 68.953125 C 114.519531 68.980469 114.59375 68.992188 114.667969 68.976562 " fill-opacity="1" fill-rule="nonzero"/><path fill="#03336d" d="M 113.640625 66.378906 C 113.617188 66.347656 113.59375 66.3125 113.566406 66.28125 C 113.835938 66.015625 114.027344 65.652344 114.09375 65.230469 C 114.117188 65.074219 114.125 64.925781 114.113281 64.777344 C 114.183594 64.800781 114.253906 64.816406 114.332031 64.828125 C 114.816406 64.894531 115.035156 64.671875 115.25 64.796875 C 115.449219 64.910156 115.5625 65.300781 115.414062 66.597656 C 115.242188 68.066406 115.078125 68.890625 114.667969 68.976562 C 114.535156 69.003906 114.398438 68.941406 114.316406 68.871094 C 114.035156 68.621094 114.34375 68.167969 114.222656 67.53125 C 114.167969 67.226562 114.105469 67.015625 113.640625 66.378906 " fill-opacity="1" fill-rule="nonzero"/><path fill="#061230" d="M 120.976562 61.945312 C 121.320312 61.785156 122.175781 61.464844 122.566406 61.417969 C 122.785156 61.394531 123.019531 61.40625 123.199219 61.535156 C 123.335938 61.632812 123.425781 61.804688 123.425781 61.972656 C 123.332031 61.9375 123.226562 61.894531 123.101562 61.847656 C 122.804688 61.734375 122.550781 61.789062 122.148438 61.875 C 121.867188 61.9375 121.597656 61.988281 121.113281 62.234375 C 121.109375 62.191406 120.976562 61.945312 120.976562 61.945312 " fill-opacity="1" fill-rule="nonzero"/><path fill="#061230" d="M 113.640625 66.378906 C 113.617188 66.347656 113.59375 66.3125 113.566406 66.28125 C 113.65625 66.191406 113.738281 66.089844 113.8125 65.976562 C 113.847656 65.992188 114.464844 66.605469 114.5625 67.347656 C 114.59375 67.589844 114.601562 68.101562 114.445312 68.292969 C 114.382812 68.371094 114.300781 68.429688 114.210938 68.472656 L 114.195312 68.480469 C 114.210938 68.234375 114.296875 67.917969 114.222656 67.53125 C 114.167969 67.226562 114.105469 67.015625 113.640625 66.378906 " fill-opacity="1" fill-rule="nonzero"/><path fill="#001430" d="M 94.164062 102.382812 C 94.164062 102.382812 94.503906 102.179688 94.671875 102.191406 C 94.914062 102.203125 95.355469 102.53125 95.546875 102.625 C 95.988281 102.839844 96.878906 103.042969 97.316406 103.265625 C 97.933594 103.578125 98.015625 104.351562 98.015625 104.351562 L 96.558594 103.621094 L 94.71875 102.753906 L 94.164062 102.382812 " fill-opacity="1" fill-rule="nonzero"/><path fill="#002560" d="M 92.855469 103.324219 C 92.863281 103.390625 92.914062 103.558594 93.105469 103.753906 C 93.371094 104.023438 93.785156 104.019531 93.894531 104.085938 C 94.242188 104.304688 95 104.820312 96.683594 105.285156 C 96.871094 105.335938 97.769531 105.421875 98 104.71875 C 98.21875 104.039062 97.503906 103.589844 96.699219 103.328125 C 95.929688 103.082031 95.734375 103.097656 95.222656 102.828125 C 94.992188 102.707031 94.699219 102.371094 94.5625 102.367188 C 94.433594 102.359375 93.972656 102.328125 93.898438 102.476562 " fill-opacity="1" fill-rule="nonzero"/><path fill="#0944ad" d="M 93.628906 103 C 94.617188 103.203125 95.585938 103.507812 96.511719 103.910156 C 96.769531 104.019531 97.066406 104.214844 97.03125 104.488281 C 97.007812 104.675781 96.832031 104.808594 96.648438 104.84375 C 96.464844 104.875 96.277344 104.828125 96.101562 104.777344 C 95.132812 104.503906 94.210938 104.097656 93.292969 103.691406 " fill-opacity="1" fill-rule="nonzero"/><path fill="#ffffff" d="M 94.429688 103.207031 L 94.128906 103.917969 L 94.480469 103.609375 Z M 94.554688 103.640625 L 94.625 104.195312 L 94.921875 103.816406 L 94.832031 103.394531 Z M 95 103.832031 L 95.105469 104.332031 L 95.335938 104.007812 L 95.230469 103.542969 Z M 95.414062 104.023438 L 95.535156 104.542969 L 95.78125 104.207031 L 95.640625 103.707031 Z M 95.859375 104.21875 L 95.980469 104.648438 L 96.296875 104.355469 L 96.144531 103.828125 Z M 96.378906 104.378906 L 96.492188 104.761719 L 96.707031 104.074219 Z M 96.488281 104.925781 C 96.472656 104.925781 96.457031 104.914062 96.453125 104.898438 L 96.320312 104.433594 L 95.984375 104.742188 C 95.976562 104.753906 95.964844 104.757812 95.949219 104.753906 C 95.9375 104.75 95.929688 104.738281 95.925781 104.726562 L 95.804688 104.296875 L 95.546875 104.652344 C 95.539062 104.664062 95.523438 104.667969 95.511719 104.667969 C 95.496094 104.664062 95.484375 104.652344 95.484375 104.640625 L 95.359375 104.101562 L 95.117188 104.441406 C 95.109375 104.453125 95.097656 104.460938 95.082031 104.457031 C 95.066406 104.453125 95.054688 104.445312 95.054688 104.429688 L 94.941406 103.910156 L 94.625 104.308594 C 94.617188 104.320312 94.601562 104.324219 94.585938 104.320312 C 94.574219 104.316406 94.5625 104.304688 94.5625 104.289062 L 94.488281 103.699219 L 94.058594 104.078125 C 94.042969 104.089844 94.023438 104.09375 94.011719 104.082031 C 93.996094 104.070312 93.992188 104.054688 94 104.039062 L 94.417969 103.054688 C 94.421875 103.039062 94.4375 103.027344 94.457031 103.03125 C 94.472656 103.03125 94.484375 103.046875 94.488281 103.0625 L 94.546875 103.550781 L 94.832031 103.296875 C 94.839844 103.289062 94.855469 103.285156 94.867188 103.289062 C 94.878906 103.292969 94.890625 103.304688 94.890625 103.316406 L 94.980469 103.742188 L 95.21875 103.4375 C 95.226562 103.425781 95.242188 103.421875 95.257812 103.425781 C 95.269531 103.429688 95.28125 103.4375 95.285156 103.453125 L 95.394531 103.925781 L 95.625 103.601562 C 95.632812 103.589844 95.644531 103.582031 95.660156 103.585938 C 95.675781 103.585938 95.683594 103.597656 95.6875 103.609375 L 95.835938 104.128906 L 96.128906 103.722656 C 96.136719 103.710938 96.148438 103.703125 96.164062 103.707031 C 96.175781 103.710938 96.1875 103.71875 96.191406 103.734375 L 96.355469 104.300781 L 96.757812 103.925781 C 96.769531 103.914062 96.789062 103.914062 96.804688 103.921875 C 96.816406 103.929688 96.824219 103.949219 96.820312 103.964844 L 96.523438 104.898438 C 96.519531 104.914062 96.503906 104.925781 96.488281 104.925781 " fill-opacity="1" fill-rule="nonzero"/><path fill="#e89c82" d="M 86.855469 92.28125 C 86.761719 93.054688 86.378906 95.679688 86.71875 96.511719 C 86.945312 97.0625 87.34375 97.566406 87.773438 97.992188 C 88.0625 97.875 88.613281 95.964844 88.902344 95.847656 C 89.085938 94.820312 88.980469 93.609375 88.875 92.511719 C 88.277344 92.40625 87.449219 92.386719 86.855469 92.28125 " fill-opacity="1" fill-rule="nonzero"/><path fill="#e89c82" d="M 97.484375 92.207031 C 97.589844 93.019531 97.898438 95.828125 97.472656 96.621094 C 97.191406 97.148438 96.453125 97.875 95.984375 98.257812 C 95.707031 98.109375 95.792969 95.800781 95.515625 95.652344 C 95.253906 94.570312 95.195312 93.347656 95.523438 92.355469 C 96.125 92.3125 96.882812 92.25 97.484375 92.207031 " fill-opacity="1" fill-rule="nonzero"/><path fill="#0944ad" d="M 95.179688 98.148438 L 88.921875 98.148438 L 88.902344 91.9375 L 95.535156 91.804688 L 95.179688 98.148438 " fill-opacity="1" fill-rule="nonzero"/><path fill="#002560" d="M 86.71875 98.179688 C 87.863281 98.410156 89.601562 98.671875 91.730469 98.640625 C 95.03125 98.59375 96.773438 97.875 96.964844 98.449219 C 97.175781 99.101562 95.308594 101.109375 93.128906 101.546875 C 92.199219 101.730469 90.996094 101.300781 88.597656 100.445312 C 87.902344 100.195312 87.050781 99.855469 86.785156 98.992188 C 86.691406 98.683594 86.695312 98.386719 86.71875 98.179688 " fill-opacity="1" fill-rule="nonzero"/><path fill="#0944ad" d="M 86.71875 92.398438 C 86.6875 92.136719 86.90625 90.875 87.355469 90.269531 C 87.886719 89.898438 88.789062 89.734375 89.773438 89.53125 C 91.058594 89.269531 92.292969 89.234375 92.816406 89.277344 C 94.746094 89.4375 96.269531 90.011719 96.945312 90.472656 C 97.363281 90.992188 97.585938 91.796875 97.632812 92.3125 C 97.707031 93.089844 86.773438 92.882812 86.71875 92.398438 " fill-opacity="1" fill-rule="nonzero"/><path fill="#ffffff" d="M 87.683594 98.511719 C 87.695312 98.671875 87.835938 98.804688 87.996094 98.804688 L 96.261719 98.78125 C 96.421875 98.78125 96.5625 98.648438 96.570312 98.488281 L 96.808594 93.707031 C 96.8125 93.546875 96.683594 93.414062 96.523438 93.414062 L 87.640625 93.4375 C 87.480469 93.4375 87.351562 93.570312 87.359375 93.730469 L 87.683594 98.511719 " fill-opacity="1" fill-rule="nonzero"/><path fill="#e89c82" d="M 93.476562 88.210938 C 93.375 88.816406 93.363281 89.410156 93.632812 90.046875 C 92.992188 90.089844 91.507812 90.117188 90.871094 90.160156 C 90.890625 89.570312 91.179688 88.796875 90.851562 88.097656 C 91.761719 88.160156 92.570312 88.144531 93.476562 88.210938 " fill-opacity="1" fill-rule="nonzero"/><path fill="#f4ae92" d="M 94.355469 86.4375 C 94.355469 87.8125 93.40625 88.925781 92.234375 88.925781 C 91.0625 88.925781 90.109375 87.8125 90.109375 86.4375 C 90.109375 85.0625 90.535156 83.949219 92.234375 83.949219 C 93.976562 83.949219 94.355469 85.0625 94.355469 86.4375 " fill-opacity="1" fill-rule="nonzero"/><path fill="#e89c82" d="M 92.789062 89.277344 C 92.328125 89.234375 91.277344 89.203125 90.167969 89.457031 C 90.179688 90.160156 91.082031 90.726562 92.195312 90.726562 C 93.273438 90.726562 94.164062 90.164062 94.226562 89.492188 C 93.792969 89.378906 93.304688 89.320312 92.789062 89.277344 " fill-opacity="1" fill-rule="nonzero"/><path fill="#b1bee8" d="M 92.671875 95.910156 C 92.671875 96.226562 92.414062 96.488281 92.097656 96.488281 C 91.777344 96.488281 91.519531 96.226562 91.519531 95.910156 C 91.519531 95.589844 91.777344 95.332031 92.097656 95.332031 C 92.414062 95.332031 92.671875 95.589844 92.671875 95.910156 " fill-opacity="1" fill-rule="nonzero"/><path fill="#03336d" d="M 89.992188 99.722656 C 89.398438 99.199219 88.488281 98.457031 87.296875 97.839844 C 86.421875 97.386719 85.839844 97.191406 85.140625 97.289062 C 84.699219 97.472656 84.011719 98.316406 83.996094 98.894531 C 83.96875 99.976562 85.667969 101.398438 87.175781 102.019531 C 89.363281 102.921875 92.78125 104.21875 93.191406 104.121094 C 93.714844 103.992188 94.183594 102.457031 94.183594 102.457031 C 92.335938 101.273438 90.90625 100.53125 89.992188 99.722656 " fill-opacity="1" fill-rule="nonzero"/><path fill="#f4ae92" d="M 90.476562 86.40625 C 90.566406 86.65625 90.492188 86.914062 90.304688 86.984375 C 90.121094 87.050781 89.894531 86.902344 89.804688 86.652344 C 89.710938 86.402344 89.789062 86.140625 89.972656 86.074219 C 90.160156 86.007812 90.382812 86.152344 90.476562 86.40625 " fill-opacity="1" fill-rule="nonzero"/><path fill="#f4ae92" d="M 94.015625 86.40625 C 93.925781 86.65625 94 86.914062 94.1875 86.984375 C 94.371094 87.050781 94.597656 86.902344 94.6875 86.652344 C 94.78125 86.402344 94.703125 86.140625 94.519531 86.074219 C 94.332031 86.007812 94.109375 86.152344 94.015625 86.40625 " fill-opacity="1" fill-rule="nonzero"/><path fill="#001430" d="M 90.085938 102.382812 C 90.085938 102.382812 89.671875 102.074219 89.503906 102.082031 C 89.265625 102.097656 88.933594 102.503906 88.742188 102.597656 C 88.304688 102.816406 87.386719 103.015625 86.953125 103.238281 C 86.335938 103.554688 86.234375 104.351562 86.234375 104.351562 L 87.691406 103.621094 L 89.53125 102.753906 L 90.085938 102.382812 " fill-opacity="1" fill-rule="nonzero"/><path fill="#002560" d="M 91.394531 103.324219 C 91.386719 103.390625 91.335938 103.558594 91.148438 103.753906 C 90.882812 104.023438 90.464844 104.019531 90.355469 104.085938 C 90.011719 104.304688 89.25 104.820312 87.566406 105.285156 C 87.378906 105.335938 86.484375 105.421875 86.253906 104.71875 C 86.03125 104.039062 86.746094 103.589844 87.550781 103.328125 C 88.320312 103.082031 88.515625 103.097656 89.027344 102.828125 C 89.257812 102.707031 89.550781 102.371094 89.691406 102.367188 C 89.816406 102.359375 90.277344 102.328125 90.351562 102.476562 " fill-opacity="1" fill-rule="nonzero"/><path fill="#0944ad" d="M 90.621094 103 C 89.632812 103.203125 88.664062 103.507812 87.738281 103.910156 C 87.484375 104.019531 87.1875 104.214844 87.21875 104.488281 C 87.242188 104.675781 87.421875 104.808594 87.601562 104.84375 C 87.785156 104.875 87.972656 104.828125 88.152344 104.777344 C 89.117188 104.503906 90.039062 104.097656 90.957031 103.691406 " fill-opacity="1" fill-rule="nonzero"/><path fill="#ffffff" d="M 89.773438 103.609375 L 90.121094 103.917969 L 89.820312 103.207031 Z M 89.328125 103.816406 L 89.628906 104.195312 L 89.695312 103.640625 L 89.417969 103.394531 Z M 88.914062 104.007812 L 89.144531 104.332031 L 89.25 103.832031 L 89.019531 103.542969 Z M 88.472656 104.207031 L 88.714844 104.542969 L 88.835938 104.023438 L 88.613281 103.707031 Z M 87.953125 104.355469 L 88.269531 104.648438 L 88.390625 104.21875 L 88.109375 103.828125 Z M 87.542969 104.074219 L 87.761719 104.761719 L 87.871094 104.378906 Z M 87.761719 104.925781 C 87.746094 104.925781 87.730469 104.914062 87.726562 104.898438 L 87.433594 103.964844 C 87.425781 103.949219 87.433594 103.929688 87.449219 103.921875 C 87.460938 103.914062 87.480469 103.914062 87.492188 103.925781 L 87.894531 104.300781 L 88.058594 103.734375 C 88.0625 103.71875 88.074219 103.710938 88.085938 103.707031 C 88.101562 103.703125 88.113281 103.710938 88.121094 103.722656 L 88.417969 104.128906 L 88.5625 103.609375 C 88.566406 103.597656 88.578125 103.585938 88.589844 103.585938 C 88.605469 103.582031 88.617188 103.589844 88.628906 103.601562 L 88.855469 103.925781 L 88.964844 103.453125 C 88.96875 103.4375 88.980469 103.429688 88.992188 103.425781 C 89.007812 103.421875 89.023438 103.425781 89.03125 103.4375 L 89.269531 103.742188 L 89.359375 103.316406 C 89.363281 103.304688 89.371094 103.292969 89.382812 103.289062 C 89.394531 103.285156 89.410156 103.289062 89.417969 103.296875 L 89.703125 103.550781 L 89.765625 103.0625 C 89.765625 103.046875 89.777344 103.03125 89.792969 103.03125 C 89.8125 103.027344 89.828125 103.039062 89.835938 103.054688 L 90.25 104.039062 C 90.257812 104.054688 90.253906 104.070312 90.238281 104.082031 C 90.226562 104.09375 90.207031 104.089844 90.195312 104.078125 L 89.761719 103.699219 L 89.6875 104.289062 C 89.6875 104.304688 89.675781 104.316406 89.664062 104.320312 C 89.648438 104.324219 89.632812 104.320312 89.625 104.308594 L 89.308594 103.910156 L 89.199219 104.429688 C 89.195312 104.445312 89.183594 104.453125 89.167969 104.457031 C 89.15625 104.460938 89.140625 104.453125 89.132812 104.441406 L 88.890625 104.101562 L 88.769531 104.640625 C 88.765625 104.652344 88.753906 104.664062 88.738281 104.667969 C 88.726562 104.667969 88.710938 104.664062 88.703125 104.652344 L 88.445312 104.296875 L 88.324219 104.726562 C 88.320312 104.738281 88.3125 104.75 88.300781 104.753906 C 88.289062 104.757812 88.273438 104.753906 88.265625 104.742188 L 87.929688 104.433594 L 87.796875 104.898438 C 87.792969 104.914062 87.777344 104.925781 87.761719 104.925781 " fill-opacity="1" fill-rule="nonzero"/><path fill="#03336d" d="M 99.140625 97.304688 C 98.402344 97.121094 97.957031 97.222656 97.078125 97.636719 C 95.933594 98.171875 94.828125 99.003906 94.054688 99.652344 C 93.117188 100.433594 91.9375 101.332031 89.929688 102.21875 C 89.929688 102.21875 90.214844 104.3125 90.8125 104.210938 C 91.738281 104.058594 94.800781 102.921875 96.988281 102.019531 C 98.496094 101.398438 100.234375 99.921875 100.207031 98.839844 C 100.191406 98.261719 99.582031 97.492188 99.140625 97.304688 " fill-opacity="1" fill-rule="nonzero"/><path fill="#002560" d="M 93.191406 83.519531 C 92.351562 83.175781 91.441406 83.308594 90.785156 83.851562 C 89.820312 84.65625 90.046875 86.042969 90.046875 86.042969 C 90.261719 86.027344 90.339844 86.359375 90.300781 86.585938 C 90.28125 86.707031 90.621094 86.875 90.628906 86.777344 C 90.679688 86.253906 90.648438 84.785156 92.042969 84.945312 C 92.269531 84.992188 92.488281 85.117188 92.675781 85.253906 C 92.960938 85.464844 93.21875 85.722656 93.539062 85.863281 C 93.648438 85.910156 93.761719 85.941406 93.882812 85.949219 C 94.015625 86.386719 93.980469 86.796875 93.980469 86.796875 C 93.980469 86.796875 94.277344 86.703125 94.292969 86.613281 C 94.3125 86.519531 95.078125 84.296875 93.191406 83.519531 " fill-opacity="1" fill-rule="nonzero"/><g clip-path="url(#6db12d94e9)"><path fill="#d9d9d9" d="M 35.535156 230.621094 C 34.15625 226.921875 33.359375 222.863281 33.359375 218.660156 C 33.359375 214.09375 34.230469 209.671875 35.96875 205.613281 C 38.578125 205.398438 41.261719 203.296875 43.652344 201.484375 C 44.738281 200.613281 45.898438 199.742188 46.550781 199.453125 C 49.378906 198.292969 50.972656 194.089844 51.335938 192.0625 C 51.554688 190.972656 51.480469 189.8125 51.191406 188.726562 C 56.121094 186.042969 61.699219 184.59375 67.5 184.59375 C 67.5 184.59375 67.5 184.59375 67.570312 184.59375 C 69.527344 184.59375 71.414062 184.738281 73.222656 185.101562 C 72.210938 185.898438 71.050781 186.335938 69.746094 186.261719 L 69.164062 186.261719 C 67.789062 186.191406 66.195312 186.117188 64.671875 187.058594 C 63.800781 187.566406 63.222656 188.21875 62.859375 189.015625 C 62.570312 189.667969 62.570312 190.175781 62.640625 190.609375 C 62.351562 190.609375 62.0625 190.539062 61.699219 190.464844 C 60.03125 190.03125 58.4375 190.464844 57.570312 191.699219 C 56.554688 193.148438 56.625 195.03125 57.785156 196.773438 C 58.875 198.4375 60.902344 199.308594 63.800781 199.308594 L 63.875 199.308594 C 64.382812 199.308594 65.179688 199.308594 65.832031 198.875 C 65.902344 199.019531 66.917969 200.105469 67.28125 200.394531 C 67.933594 200.976562 68.804688 201.121094 69.746094 200.902344 C 69.890625 200.832031 70.035156 200.902344 70.035156 200.902344 C 70.832031 201.121094 71.773438 201.410156 72.71875 201.773438 C 72.863281 201.84375 73.078125 201.992188 73.441406 202.28125 C 73.515625 202.351562 73.515625 202.570312 73.441406 202.714844 C 72.789062 202.933594 72.066406 203.078125 71.414062 203.148438 C 68.511719 203.511719 66.121094 203.078125 63.945312 201.917969 C 64.308594 202.570312 64.453125 203.367188 64.453125 204.09375 L 64.453125 205.324219 C 65.976562 205.902344 67.644531 206.195312 69.457031 206.195312 C 70.179688 206.195312 70.976562 206.121094 71.773438 206.050781 C 72.644531 205.902344 73.585938 205.757812 74.527344 205.46875 C 75.398438 205.179688 75.980469 204.453125 76.195312 203.511719 C 76.414062 202.496094 76.269531 201.191406 75.472656 200.324219 C 74.890625 199.742188 74.3125 199.382812 73.804688 199.164062 C 72.789062 198.730469 71.703125 198.4375 70.832031 198.222656 C 70.179688 198.003906 69.527344 198.148438 69.09375 198.222656 C 68.949219 198.078125 67.570312 196.554688 67.207031 196.265625 C 66.265625 195.539062 65.035156 195.613281 64.238281 196.554688 C 64.164062 196.554688 63.800781 196.554688 63.800781 196.554688 C 62.496094 196.554688 60.832031 196.265625 60.105469 195.25 C 59.960938 194.960938 59.378906 194.089844 59.886719 193.4375 C 60.105469 193.148438 60.757812 193.292969 60.902344 193.292969 C 62.207031 193.65625 63.367188 193.582031 64.453125 193.148438 C 65.398438 192.714844 65.757812 192.132812 65.832031 191.625 C 65.976562 191.117188 65.902344 190.539062 65.542969 189.957031 C 65.6875 189.8125 65.832031 189.597656 66.121094 189.453125 C 66.917969 189.015625 67.789062 189.015625 69.019531 189.089844 L 69.601562 189.089844 C 71.703125 189.160156 73.585938 188.507812 75.179688 187.132812 C 75.761719 186.625 76.269531 186.191406 76.632812 185.828125 C 82.210938 187.421875 87.359375 190.394531 91.5625 194.597656 C 94.316406 197.351562 96.5625 200.539062 98.15625 203.945312 C 98.15625 204.019531 97.578125 208.804688 96.78125 211.339844 C 96.707031 211.558594 96.636719 211.703125 96.5625 211.847656 C 96.492188 211.703125 94.75 208.585938 94.460938 208.152344 C 92.285156 204.308594 88.734375 202.207031 85.109375 202.789062 C 84.457031 202.859375 83.371094 203.511719 82.9375 204.453125 C 82.574219 205.179688 82.648438 206.050781 83.082031 206.773438 C 83.300781 207.136719 83.589844 207.5 83.734375 207.789062 C 83.878906 208.007812 84.097656 208.296875 84.097656 208.367188 C 84.097656 208.367188 84.097656 208.441406 84.023438 208.511719 C 83.734375 209.238281 83.226562 209.746094 82.574219 209.890625 C 81.921875 210.109375 81.195312 209.890625 80.542969 209.382812 C 80.109375 209.019531 79.457031 208.949219 78.949219 209.164062 C 78.152344 209.457031 77.71875 210.398438 77.574219 211.773438 C 77.429688 212.863281 77.574219 214.167969 78.007812 215.398438 C 78.949219 214.890625 80.039062 214.746094 81.050781 214.964844 C 80.542969 214.3125 80.328125 213.371094 80.398438 212.574219 C 81.34375 212.933594 82.429688 212.933594 83.371094 212.644531 C 84.894531 212.210938 86.125 211.050781 86.707031 209.527344 C 87.359375 207.859375 86.488281 206.703125 85.980469 205.976562 C 85.910156 205.832031 85.761719 205.6875 85.691406 205.542969 C 88.445312 205.179688 90.691406 207.355469 91.851562 209.457031 C 92.070312 209.890625 93.300781 212.066406 93.664062 212.71875 L 93.734375 212.789062 C 94.171875 213.515625 94.96875 214.890625 96.34375 214.964844 C 97.144531 215.035156 98.59375 214.675781 99.390625 212.136719 C 99.679688 211.121094 99.96875 210.324219 100.113281 209.457031 C 100.910156 212.425781 101.347656 215.542969 101.347656 218.660156 C 101.347656 221.414062 100.984375 224.023438 100.332031 226.5625 C 100.984375 227.648438 101.347656 228.878906 101.347656 230.113281 L 101.347656 232.722656 C 103.160156 228.371094 104.246094 223.589844 104.246094 218.589844 C 104.316406 208.660156 100.476562 199.308594 93.519531 192.277344 C 86.5625 185.246094 77.28125 181.40625 67.425781 181.40625 C 67.425781 181.40625 67.425781 181.40625 67.351562 181.40625 C 57.570312 181.695312 48.292969 185.539062 41.261719 192.496094 C 34.304688 199.453125 30.460938 208.730469 30.460938 218.660156 C 30.460938 225.472656 32.347656 231.851562 35.535156 237.359375 Z M 43.363281 194.597656 C 44.957031 193.003906 46.695312 191.554688 48.582031 190.320312 C 48.582031 190.683594 48.582031 191.117188 48.507812 191.480469 C 48.074219 193.582031 46.695312 196.265625 45.390625 196.773438 C 44.378906 197.207031 43.21875 198.148438 41.839844 199.164062 C 40.609375 200.105469 39.085938 201.339844 37.636719 202.0625 C 39.160156 199.308594 41.042969 196.84375 43.363281 194.597656 Z M 43.363281 194.597656 " fill-opacity="1" fill-rule="nonzero"/></g><path fill="#d9d9d9" d="M 54.378906 230.980469 L 54.378906 230.257812 C 54.378906 229.460938 53.726562 228.808594 52.929688 228.808594 C 52.132812 228.808594 51.480469 229.460938 51.480469 230.257812 L 51.480469 231.054688 C 51.699219 231.054688 51.988281 230.980469 52.207031 230.980469 Z M 54.378906 230.980469 " fill-opacity="1" fill-rule="nonzero"/><path fill="#d9d9d9" d="M 48.582031 231.996094 L 48.582031 230.257812 C 48.582031 229.460938 47.929688 228.808594 47.132812 228.808594 C 46.335938 228.808594 45.683594 229.460938 45.683594 230.257812 L 45.683594 233.15625 C 45.683594 233.589844 45.898438 233.953125 46.1875 234.242188 C 46.769531 233.300781 47.640625 232.503906 48.582031 231.996094 Z M 48.582031 231.996094 " fill-opacity="1" fill-rule="nonzero"/><path fill="#d9d9d9" d="M 58.003906 241.128906 L 55.105469 241.128906 C 54.308594 241.128906 53.65625 241.78125 53.65625 242.578125 C 53.65625 243.375 54.308594 244.027344 55.105469 244.027344 L 58.003906 244.027344 C 58.800781 244.027344 59.453125 243.375 59.453125 242.578125 C 59.453125 241.78125 58.800781 241.128906 58.003906 241.128906 Z M 58.003906 241.128906 " fill-opacity="1" fill-rule="nonzero"/><path fill="#d9d9d9" d="M 63.800781 244.027344 L 66.703125 244.027344 C 67.5 244.027344 68.152344 243.375 68.152344 242.578125 C 68.152344 241.78125 67.5 241.128906 66.703125 241.128906 L 63.800781 241.128906 C 63.003906 241.128906 62.351562 241.78125 62.351562 242.578125 C 62.351562 243.375 63.003906 244.027344 63.800781 244.027344 Z M 63.800781 244.027344 " fill-opacity="1" fill-rule="nonzero"/><path fill="#d9d9d9" d="M 58.003906 246.925781 L 55.105469 246.925781 C 54.308594 246.925781 53.65625 247.578125 53.65625 248.378906 C 53.65625 249.175781 54.308594 249.828125 55.105469 249.828125 L 58.003906 249.828125 C 58.800781 249.828125 59.453125 249.175781 59.453125 248.378906 C 59.453125 247.578125 58.800781 246.925781 58.003906 246.925781 Z M 58.003906 246.925781 " fill-opacity="1" fill-rule="nonzero"/><path fill="#d9d9d9" d="M 63.800781 249.828125 L 66.703125 249.828125 C 67.5 249.828125 68.152344 249.175781 68.152344 248.378906 C 68.152344 247.578125 67.5 246.925781 66.703125 246.925781 L 63.800781 246.925781 C 63.003906 246.925781 62.351562 247.578125 62.351562 248.378906 C 62.351562 249.175781 63.003906 249.828125 63.800781 249.828125 Z M 63.800781 249.828125 " fill-opacity="1" fill-rule="nonzero"/><path fill="#d9d9d9" d="M 58.003906 252.726562 L 55.105469 252.726562 C 54.308594 252.726562 53.65625 253.378906 53.65625 254.175781 C 53.65625 254.972656 54.308594 255.625 55.105469 255.625 L 58.003906 255.625 C 58.800781 255.625 59.453125 254.972656 59.453125 254.175781 C 59.453125 253.378906 58.800781 252.726562 58.003906 252.726562 Z M 58.003906 252.726562 " fill-opacity="1" fill-rule="nonzero"/><path fill="#d9d9d9" d="M 68.152344 254.175781 C 68.152344 253.378906 67.5 252.726562 66.703125 252.726562 L 63.800781 252.726562 C 63.003906 252.726562 62.351562 253.378906 62.351562 254.175781 C 62.351562 254.972656 63.003906 255.625 63.800781 255.625 L 66.703125 255.625 C 67.5 255.625 68.152344 254.972656 68.152344 254.175781 Z M 68.152344 254.175781 " fill-opacity="1" fill-rule="nonzero"/><path fill="#d9d9d9" d="M 52.929688 225.910156 C 53.726562 225.910156 54.378906 225.257812 54.378906 224.460938 L 54.378906 221.558594 C 54.378906 220.761719 53.726562 220.109375 52.929688 220.109375 C 52.132812 220.109375 51.480469 220.761719 51.480469 221.558594 L 51.480469 224.460938 C 51.480469 225.257812 52.132812 225.910156 52.929688 225.910156 Z M 52.929688 225.910156 " fill-opacity="1" fill-rule="nonzero"/><path fill="#d9d9d9" d="M 47.132812 225.910156 C 47.929688 225.910156 48.582031 225.257812 48.582031 224.460938 L 48.582031 221.558594 C 48.582031 220.761719 47.929688 220.109375 47.132812 220.109375 C 46.335938 220.109375 45.683594 220.761719 45.683594 221.558594 L 45.683594 224.460938 C 45.683594 225.257812 46.335938 225.910156 47.132812 225.910156 Z M 47.132812 225.910156 " fill-opacity="1" fill-rule="nonzero"/><path fill="#d9d9d9" d="M 85.546875 235.332031 C 84.75 235.332031 84.097656 235.984375 84.097656 236.78125 L 84.097656 239.679688 C 84.097656 240.476562 84.75 241.128906 85.546875 241.128906 C 86.34375 241.128906 86.996094 240.476562 86.996094 239.679688 L 86.996094 236.78125 C 86.996094 235.984375 86.34375 235.332031 85.546875 235.332031 Z M 85.546875 235.332031 " fill-opacity="1" fill-rule="nonzero"/><path fill="#d9d9d9" d="M 91.34375 235.332031 C 90.546875 235.332031 89.894531 235.984375 89.894531 236.78125 L 89.894531 239.679688 C 89.894531 240.476562 90.546875 241.128906 91.34375 241.128906 C 92.140625 241.128906 92.792969 240.476562 92.792969 239.679688 L 92.792969 236.78125 C 92.792969 235.984375 92.140625 235.332031 91.34375 235.332031 Z M 91.34375 235.332031 " fill-opacity="1" fill-rule="nonzero"/><path fill="#d9d9d9" d="M 85.546875 244.027344 C 84.75 244.027344 84.097656 244.679688 84.097656 245.476562 L 84.097656 248.378906 C 84.097656 249.175781 84.75 249.828125 85.546875 249.828125 C 86.34375 249.828125 86.996094 249.175781 86.996094 248.378906 L 86.996094 245.476562 C 86.996094 244.679688 86.34375 244.027344 85.546875 244.027344 Z M 85.546875 244.027344 " fill-opacity="1" fill-rule="nonzero"/><path fill="#d9d9d9" d="M 91.34375 244.027344 C 90.546875 244.027344 89.894531 244.679688 89.894531 245.476562 L 89.894531 248.378906 C 89.894531 249.175781 90.546875 249.828125 91.34375 249.828125 C 92.140625 249.828125 92.792969 249.175781 92.792969 248.378906 L 92.792969 245.476562 C 92.792969 244.679688 92.140625 244.027344 91.34375 244.027344 Z M 91.34375 244.027344 " fill-opacity="1" fill-rule="nonzero"/><path fill="#d9d9d9" d="M 85.546875 252.726562 C 84.75 252.726562 84.097656 253.378906 84.097656 254.175781 L 84.097656 257.074219 C 84.097656 257.871094 84.75 258.523438 85.546875 258.523438 C 86.34375 258.523438 86.996094 257.871094 86.996094 257.074219 L 86.996094 254.175781 C 86.996094 253.378906 86.34375 252.726562 85.546875 252.726562 Z M 85.546875 252.726562 " fill-opacity="1" fill-rule="nonzero"/><path fill="#d9d9d9" d="M 91.34375 252.726562 C 90.546875 252.726562 89.894531 253.378906 89.894531 254.175781 L 89.894531 257.074219 C 89.894531 257.871094 90.546875 258.523438 91.34375 258.523438 C 92.140625 258.523438 92.792969 257.871094 92.792969 257.074219 L 92.792969 254.175781 C 92.792969 253.378906 92.140625 252.726562 91.34375 252.726562 Z M 91.34375 252.726562 " fill-opacity="1" fill-rule="nonzero"/><path fill="#d9d9d9" d="M 85.546875 261.421875 C 84.75 261.421875 84.097656 262.074219 84.097656 262.875 L 84.097656 265.773438 C 84.097656 266.570312 84.75 267.222656 85.546875 267.222656 C 86.34375 267.222656 86.996094 266.570312 86.996094 265.773438 L 86.996094 262.875 C 86.996094 262.074219 86.34375 261.421875 85.546875 261.421875 Z M 85.546875 261.421875 " fill-opacity="1" fill-rule="nonzero"/><path fill="#d9d9d9" d="M 91.34375 261.421875 C 90.546875 261.421875 89.894531 262.074219 89.894531 262.875 L 89.894531 265.773438 C 89.894531 266.570312 90.546875 267.222656 91.34375 267.222656 C 92.140625 267.222656 92.792969 266.570312 92.792969 265.773438 L 92.792969 262.875 C 92.792969 262.074219 92.140625 261.421875 91.34375 261.421875 Z M 91.34375 261.421875 " fill-opacity="1" fill-rule="nonzero"/><g clip-path="url(#c8623aed17)"><path fill="#d9d9d9" d="M 112.363281 271.570312 L 107.289062 271.570312 L 107.289062 268.960938 C 109.03125 268.164062 110.1875 266.0625 110.1875 263.453125 C 110.1875 260.191406 108.304688 257.65625 105.839844 257.65625 C 103.375 257.65625 101.492188 260.191406 101.492188 263.453125 C 101.492188 265.988281 102.652344 268.164062 104.390625 268.960938 L 104.390625 271.570312 L 98.59375 271.570312 L 98.59375 230.328125 C 98.59375 228.953125 97.867188 227.648438 96.636719 226.851562 L 81.558594 218.296875 C 80.90625 217.863281 80.109375 217.863281 79.386719 218.226562 C 78.734375 218.589844 78.296875 219.3125 78.296875 220.039062 L 78.296875 225.183594 L 73.949219 225.183594 L 73.949219 220.109375 C 73.949219 217.71875 71.992188 215.761719 69.601562 215.761719 L 61.628906 215.761719 L 61.628906 204.09375 C 61.628906 203.296875 61.191406 202.496094 60.394531 202.207031 C 59.671875 201.84375 58.800781 201.992188 58.148438 202.496094 L 39.882812 218.082031 C 38.941406 218.878906 38.433594 219.964844 38.433594 221.199219 L 38.433594 271.570312 L 32.636719 271.570312 L 32.636719 268.960938 C 34.375 268.164062 35.535156 266.0625 35.535156 263.453125 C 35.535156 260.191406 33.652344 257.65625 31.1875 257.65625 C 28.722656 257.65625 26.835938 260.191406 26.835938 263.453125 C 26.835938 265.988281 27.996094 268.164062 29.738281 268.960938 L 29.738281 271.570312 L 22.488281 271.570312 C 21.691406 271.570312 21.039062 272.222656 21.039062 273.019531 C 21.039062 273.816406 21.691406 274.46875 22.488281 274.46875 L 112.363281 274.46875 C 113.160156 274.46875 113.8125 273.816406 113.8125 273.019531 C 113.8125 272.222656 113.160156 271.570312 112.363281 271.570312 Z M 105.839844 260.554688 C 106.421875 260.554688 107.289062 261.714844 107.289062 263.453125 C 107.289062 265.191406 106.421875 266.351562 105.839844 266.351562 C 105.261719 266.351562 104.390625 265.191406 104.390625 263.453125 C 104.390625 261.714844 105.261719 260.554688 105.839844 260.554688 Z M 31.1875 260.554688 C 31.765625 260.554688 32.636719 261.714844 32.636719 263.453125 C 32.636719 265.191406 31.765625 266.351562 31.1875 266.351562 C 30.605469 266.351562 29.738281 265.191406 29.738281 263.453125 C 29.738281 261.714844 30.605469 260.554688 31.1875 260.554688 Z M 81.195312 221.414062 L 95.113281 229.386719 C 95.476562 229.605469 95.691406 229.96875 95.691406 230.402344 L 95.691406 271.570312 L 81.195312 271.570312 Z M 41.332031 221.199219 C 41.332031 220.835938 41.476562 220.546875 41.769531 220.328125 L 58.726562 205.832031 L 58.726562 230.980469 L 61.628906 230.980469 L 61.628906 218.660156 L 69.601562 218.660156 C 70.398438 218.660156 71.050781 219.3125 71.050781 220.109375 L 71.050781 225.257812 C 69.019531 225.617188 67.425781 227.359375 67.425781 229.53125 L 67.425781 230.980469 L 69.601562 230.980469 C 69.816406 230.980469 70.109375 230.980469 70.324219 231.054688 L 70.324219 229.53125 C 70.324219 228.734375 70.976562 228.082031 71.773438 228.082031 L 78.296875 228.082031 L 78.296875 271.570312 L 73.949219 271.570312 L 73.949219 238.230469 C 73.949219 235.839844 71.992188 233.882812 69.601562 233.882812 L 52.207031 233.882812 C 49.8125 233.882812 47.855469 235.839844 47.855469 238.230469 L 47.855469 271.570312 L 41.332031 271.570312 Z M 57.277344 271.570312 L 57.277344 262.875 L 64.527344 262.875 L 64.527344 271.570312 Z M 65.976562 259.972656 L 55.828125 259.972656 C 55.03125 259.972656 54.378906 260.625 54.378906 261.421875 L 54.378906 271.570312 L 50.753906 271.570312 L 50.753906 238.230469 C 50.753906 237.433594 51.40625 236.78125 52.207031 236.78125 L 69.601562 236.78125 C 70.398438 236.78125 71.050781 237.433594 71.050781 238.230469 L 71.050781 271.570312 L 67.425781 271.570312 L 67.425781 261.421875 C 67.425781 260.625 66.773438 259.972656 65.976562 259.972656 Z M 65.976562 259.972656 " fill-opacity="1" fill-rule="nonzero"/></g><g fill="#0b79b8" fill-opacity="1"><g transform="translate(20.894028, 297.80145)"><g><path d="M 3.609375 -4.84375 L 3.609375 -1.828125 L 8.875 -1.828125 L 8.875 0 L 1.4375 0 L 1.4375 -11.03125 L 8.765625 -11.03125 L 8.765625 -9.203125 L 3.609375 -9.203125 L 3.609375 -6.625 L 8.109375 -6.625 L 8.109375 -4.84375 Z M 3.609375 -4.84375 "/></g></g></g><g fill="#0b79b8" fill-opacity="1"><g transform="translate(30.378769, 297.80145)"><g><path d="M 3.546875 0 L 1.4375 0 L 1.4375 -11.03125 L 3.9375 -11.03125 L 8.359375 -3.921875 L 8.5625 -3.953125 L 8.5625 -11.03125 L 10.65625 -11.03125 L 10.65625 0 L 8.421875 0 L 3.734375 -7.59375 L 3.546875 -7.5625 Z M 3.546875 0 "/></g></g></g><g fill="#0b79b8" fill-opacity="1"><g transform="translate(42.474265, 297.80145)"><g><path d="M 8.84375 -11.03125 L 8.84375 -9.203125 L 5.65625 -9.203125 L 5.65625 0 L 3.484375 0 L 3.484375 -9.203125 L 0.296875 -9.203125 L 0.296875 -11.03125 Z M 8.84375 -11.03125 "/></g></g></g><g fill="#0b79b8" fill-opacity="1"><g transform="translate(51.619454, 297.80145)"><g><path d="M 3.609375 -4.84375 L 3.609375 -1.828125 L 8.875 -1.828125 L 8.875 0 L 1.4375 0 L 1.4375 -11.03125 L 8.765625 -11.03125 L 8.765625 -9.203125 L 3.609375 -9.203125 L 3.609375 -6.625 L 8.109375 -6.625 L 8.109375 -4.84375 Z M 3.609375 -4.84375 "/></g></g></g><g fill="#0b79b8" fill-opacity="1"><g transform="translate(61.104195, 297.80145)"><g><path d="M 1.4375 0 L 1.4375 -11.03125 L 5.859375 -11.03125 C 7.003906 -11.03125 7.863281 -10.765625 8.4375 -10.234375 C 9.019531 -9.710938 9.3125 -8.988281 9.3125 -8.0625 C 9.3125 -7.394531 9.140625 -6.847656 8.796875 -6.421875 C 8.460938 -5.992188 7.957031 -5.664062 7.28125 -5.4375 L 7.28125 -5.28125 C 7.632812 -5.132812 7.914062 -4.910156 8.125 -4.609375 C 8.34375 -4.316406 8.546875 -3.878906 8.734375 -3.296875 L 9.84375 0 L 7.59375 0 L 6.515625 -3.296875 C 6.410156 -3.628906 6.285156 -3.882812 6.140625 -4.0625 C 6.003906 -4.25 5.828125 -4.382812 5.609375 -4.46875 C 5.398438 -4.550781 5.125 -4.59375 4.78125 -4.59375 L 3.609375 -4.59375 L 3.609375 0 Z M 5.59375 -6.328125 C 6.65625 -6.328125 7.1875 -6.816406 7.1875 -7.796875 C 7.1875 -8.796875 6.65625 -9.296875 5.59375 -9.296875 L 3.609375 -9.296875 L 3.609375 -6.328125 Z M 5.59375 -6.328125 "/></g></g></g><g fill="#0b79b8" fill-opacity="1"><g transform="translate(71.418945, 297.80145)"><g><path d="M 5.703125 -11.03125 C 6.484375 -11.03125 7.15625 -10.882812 7.71875 -10.59375 C 8.28125 -10.300781 8.703125 -9.894531 8.984375 -9.375 C 9.273438 -8.863281 9.421875 -8.257812 9.421875 -7.5625 C 9.421875 -6.875 9.273438 -6.269531 8.984375 -5.75 C 8.703125 -5.238281 8.28125 -4.835938 7.71875 -4.546875 C 7.15625 -4.253906 6.484375 -4.109375 5.703125 -4.109375 L 3.609375 -4.109375 L 3.609375 0 L 1.4375 0 L 1.4375 -11.03125 Z M 5.40625 -5.84375 C 6.625 -5.84375 7.234375 -6.414062 7.234375 -7.5625 C 7.234375 -8.71875 6.625 -9.296875 5.40625 -9.296875 L 3.609375 -9.296875 L 3.609375 -5.84375 Z M 5.40625 -5.84375 "/></g></g></g><g fill="#0b79b8" fill-opacity="1"><g transform="translate(81.499781, 297.80145)"><g><path d="M 1.4375 0 L 1.4375 -11.03125 L 5.859375 -11.03125 C 7.003906 -11.03125 7.863281 -10.765625 8.4375 -10.234375 C 9.019531 -9.710938 9.3125 -8.988281 9.3125 -8.0625 C 9.3125 -7.394531 9.140625 -6.847656 8.796875 -6.421875 C 8.460938 -5.992188 7.957031 -5.664062 7.28125 -5.4375 L 7.28125 -5.28125 C 7.632812 -5.132812 7.914062 -4.910156 8.125 -4.609375 C 8.34375 -4.316406 8.546875 -3.878906 8.734375 -3.296875 L 9.84375 0 L 7.59375 0 L 6.515625 -3.296875 C 6.410156 -3.628906 6.285156 -3.882812 6.140625 -4.0625 C 6.003906 -4.25 5.828125 -4.382812 5.609375 -4.46875 C 5.398438 -4.550781 5.125 -4.59375 4.78125 -4.59375 L 3.609375 -4.59375 L 3.609375 0 Z M 5.59375 -6.328125 C 6.65625 -6.328125 7.1875 -6.816406 7.1875 -7.796875 C 7.1875 -8.796875 6.65625 -9.296875 5.59375 -9.296875 L 3.609375 -9.296875 L 3.609375 -6.328125 Z M 5.59375 -6.328125 "/></g></g></g><g fill="#0b79b8" fill-opacity="1"><g transform="translate(91.81453, 297.80145)"><g><path d="M 3.609375 0 L 1.4375 0 L 1.4375 -11.03125 L 3.609375 -11.03125 Z M 3.609375 0 "/></g></g></g><g fill="#0b79b8" fill-opacity="1"><g transform="translate(96.870043, 297.80145)"><g><path d="M 4.890625 0.15625 C 4.128906 0.15625 3.445312 0.0625 2.84375 -0.125 C 2.25 -0.3125 1.753906 -0.554688 1.359375 -0.859375 C 0.960938 -1.171875 0.65625 -1.507812 0.4375 -1.875 L 1.640625 -3.34375 L 1.828125 -3.34375 C 2.160156 -2.851562 2.582031 -2.460938 3.09375 -2.171875 C 3.601562 -1.878906 4.203125 -1.734375 4.890625 -1.734375 C 5.472656 -1.734375 5.910156 -1.851562 6.203125 -2.09375 C 6.503906 -2.34375 6.65625 -2.679688 6.65625 -3.109375 C 6.65625 -3.378906 6.609375 -3.597656 6.515625 -3.765625 C 6.421875 -3.941406 6.257812 -4.09375 6.03125 -4.21875 C 5.8125 -4.351562 5.515625 -4.460938 5.140625 -4.546875 L 3.71875 -4.875 C 2.726562 -5.101562 1.988281 -5.476562 1.5 -6 C 1.019531 -6.53125 0.78125 -7.210938 0.78125 -8.046875 C 0.78125 -8.671875 0.9375 -9.21875 1.25 -9.6875 C 1.5625 -10.164062 2.015625 -10.535156 2.609375 -10.796875 C 3.203125 -11.054688 3.914062 -11.1875 4.75 -11.1875 C 5.59375 -11.1875 6.316406 -11.070312 6.921875 -10.84375 C 7.535156 -10.625 8.050781 -10.285156 8.46875 -9.828125 L 7.390625 -8.34375 L 7.203125 -8.34375 C 6.890625 -8.664062 6.53125 -8.910156 6.125 -9.078125 C 5.71875 -9.242188 5.257812 -9.328125 4.75 -9.328125 C 4.144531 -9.328125 3.6875 -9.21875 3.375 -9 C 3.0625 -8.789062 2.90625 -8.503906 2.90625 -8.140625 C 2.90625 -7.785156 3.015625 -7.503906 3.234375 -7.296875 C 3.453125 -7.097656 3.832031 -6.941406 4.375 -6.828125 L 5.828125 -6.515625 C 6.898438 -6.296875 7.675781 -5.914062 8.15625 -5.375 C 8.632812 -4.832031 8.875 -4.125 8.875 -3.25 C 8.875 -2.5625 8.722656 -1.960938 8.421875 -1.453125 C 8.128906 -0.941406 7.679688 -0.546875 7.078125 -0.265625 C 6.484375 0.015625 5.753906 0.15625 4.890625 0.15625 Z M 4.890625 0.15625 "/></g></g></g><g fill="#0b79b8" fill-opacity="1"><g transform="translate(106.347237, 297.80145)"><g><path d="M 3.609375 -4.84375 L 3.609375 -1.828125 L 8.875 -1.828125 L 8.875 0 L 1.4375 0 L 1.4375 -11.03125 L 8.765625 -11.03125 L 8.765625 -9.203125 L 3.609375 -9.203125 L 3.609375 -6.625 L 8.109375 -6.625 L 8.109375 -4.84375 Z M 3.609375 -4.84375 "/></g></g></g></svg>